<svg xmlns="http://www.w3.org/2000/svg" viewBox="0 0 500 500" id="Clothes">
  <path d="m496.806,190.262l-35.278-54.945-3.614-5.615-2.233-3.488-7.505-11.68-5.497-8.555-1.645-2.557-19.086-29.729c-.125-.198-.245-.363-.357-.495-.092-.132-.218-.291-.376-.456-.146-.165-.311-.317-.482-.469-.093-.086-.192-.172-.284-.244-.086-.073-.178-.139-.277-.205-.139-.093-.363-.251-.661-.41-.198-.119-.41-.218-.627-.297-.192-.086-.396-.159-.615-.225-.026-.007-19.443-5.596-19.443-5.596l-26.802-7.703-5.53-1.592-1.42-.41-5.847-1.685c-.046-.013-.086-.02-.132-.033l-9.21-2.643-8.978-2.583c-2.636-5.708-4.657-11.403-6.018-16.939-4.565-18.669-21.233-31.71-40.543-31.71h-73.284c-20.519,0-38.277,12.988-43.185,31.591-1.453,5.516-3.633,11.211-6.501,16.958l-15.247,4.07-17.262,4.598-17.573,4.684-.377.106-21.907,5.833-2.854.766-8.357,2.226c-.119.026-.231.066-.35.106-.059.02-.178.059-.178.059-.192.066-.37.139-.548.231-.152.066-.304.145-.449.225-.146.086-.344.198-.568.363-.119.079-.238.172-.35.264-.119.092-.297.238-.502.443-.172.172-.311.33-.41.449-.079.093-.159.192-.238.291-.047.059-.093.125-.132.185l-37.306,53.855c-.02.033-2.59,3.752-2.59,3.752l-1.341,1.929-14.21,20.519-7.445,10.762-17.884,25.818c-1.011,1.467-1.381,3.237-1.037,5.034.344,1.724,1.341,3.224,2.854,4.235l99.67,65.429-.363,47.969-.026,3.092-.291,38.515-.02,2.986-.139,18.068c0,.073-.046,5.589-.046,5.589l-.231,30.244-33.62,54.04c-1.169,1.876-1.328,4.202-.416,6.217.905,2.002,2.735,3.422,4.908,3.799l107.716,18.379c.033.007,2.695.456,2.695.456l12.592,2.147c.033.007,6.87,1.176,6.87,1.176l2.523.429c.066.013.132.026.192.033l2.92.495,8.668,1.48c.396.073.773.106,1.15.106,2.206,0,4.261-1.103,5.496-2.946l8.641-12.968,1.493-2.24.41-.621,22.97-34.452,30.957,50.069c1.189,1.949,3.343,3.158,5.629,3.158.37,0,.734-.033,1.123-.099.026,0,79.719-14.666,79.719-14.666l2.61-.482,18.669-3.435,5.397-.991,6.203-1.143s21.246-3.911,21.272-3.918c.311-.059.615-.145.859-.231,1.691-.568,3.098-1.823,3.865-3.442.013-.026.026-.053.033-.079.879-1.949.766-4.208-.297-6.032l-4.03-6.996-1.467-2.524-11.264-19.535-14.461-25.071-1.031-146.727,92.403-65.409c2.894-2.055,3.653-5.992,1.737-8.958Zm-40.484-47.156l11.594,18.055.006.007c.278,1.737.278,3.818-.944,4.862-1.136.971-2.643,1.083-4.466.33-1.639-.674-3.515-.04-4.459,1.506-.377.608-1.051,1.037-2.008,1.275-.231.059-1.196-.112-2.881-1.579-3.462-3.006-8.04-10.061-7.379-16.331.02-.172.006-.337-.02-.502,3.125,3.845,7.611,5.913,7.875,6.032.178.079.363.119.548.119.376,0,.74-.159.997-.456.383-.443.429-1.083.112-1.579-2.352-3.66-1.777-4.651-1.704-4.757.376-.529,2.107-.476,3.184-.211.601.152,1.222-.132,1.506-.687.277-.548.132-1.222-.344-1.612l-5.073-4.175,3.455-.297Zm-10.696-16.668c0,.007,0,.013.007.02l.522.819v.007l6.6,10.266c-.436.733-.535,1.539-.277,2.299.112.324.284.621.489.892l-3.554.304c-.535.046-.991.416-1.15.925-.159.515.006,1.07.423,1.414l4.71,3.878c-.753.211-1.46.601-1.949,1.282-.654.912-.786,2.094-.383,3.567-2.293-1.711-4.922-4.347-5.516-7.729-.086-.489-.443-.892-.925-1.037-.126-.033-.251-.053-.377-.053-.357,0-.714.145-.964.423-.092.092-1.513,1.638-2.61,3.838-.119-.277-.323-.509-.601-.661-.548-.291-1.222-.152-1.625.31.845-1.566,2.081-3.23,3.884-4.829.317-.284.476-.7.436-1.123-.046-.423-.291-.799-.654-1.011-.105-.059-1.883-1.064-4.149-1.235.139-.119.291-.231.449-.33.436-.264.674-.753.628-1.262-.053-.502-.39-.931-.865-1.103-.099-.04-1.024-.37-2.392-.687.125-.007.258-.007.383-.007.436.007.859-.211,1.103-.575.251-.37.297-.832.132-1.242-.443-1.097-1.348-3.138-2.431-4.697.786.086,1.546.284,1.85.621,1.295,1.585,5.629,6.672,8.35,7.029,1.473.192,2.239-.363,2.623-.865.898-1.169.291-2.775.165-3.085-.073-.165-.172-.31-.297-.436l-3.395-3.297c.139-.053.264-.126.383-.231.416-.35.575-.925.39-1.44-.39-1.117-.74-2.292-1.024-3.448l1.612,2.491Zm-8.073-12.559l2.979,4.644c0,.694.053,1.414.139,2.14-.119-.066-.251-.112-.39-.139-.482-.086-.978.092-1.282.482-.535.687-.806,1.447-.918,2.193-.211-1.11-.892-5.16-.528-9.322Zm-1.85,10.696l.357.277c.443.33,1.043.344,1.506.046.205-.132.357-.317.456-.529.073,1.533.641,2.781.687,2.867.066.145.159.277.271.39l6.606,6.408c.006.033.013.073.026.106-.033,0-.066-.007-.099-.013-1.136-.145-4.36-3.27-6.659-6.091-.006-.013-.013-.02-.026-.033-1.619-1.87-5.576-1.777-6.838-1.321-1.017.363-1.143,1.116-1.156,1.427-.007.31.086,1.07,1.097,1.493.462.231,1.4,1.711,2.266,3.495-4.301.542-7.96,2.742-8.132,2.854-.595.357-.806,1.116-.489,1.731.317.621,1.063.885,1.698.608,2.431-1.057,5.721-.601,7.848-.106-.733.951-1.123,1.843-1.182,1.995-.205.489-.093,1.05.277,1.427.363.383.925.502,1.414.31,1.189-.456,2.458-.317,3.435-.053-6.012,6.435-4.988,13.232-4.935,13.536.099.614.615,1.077,1.235,1.11.608.026,1.176-.377,1.341-.978.218-.799.76-1.889,1.387-2.966.364,1.698.965,2.986,1.011,3.085.251.529.826.832,1.4.74.218-.04.416-.139.582-.271.006,1.467.139,3.079.39,4.836.753,5.193-3.118,9.216-7.141,9.976-3.891.727-6.837-1.579-7.901-6.17-.125-.542-.575-.945-1.13-1.017-.449-.053-2.22-.469-2.682-1.48-.409-.905.271-2.226.918-3.178.403-.595.258-1.407-.33-1.823-.469-.33-1.817-1.546-1.843-2.722-.006-.628.41-1.275,1.235-1.903,3.356-2.55,6.97-7.313,8.833-9.923.436-.614.489-1.414.132-2.074-.344-.647-1.004-1.044-1.737-1.044h-.06c-2.596.079-9.196.72-14.408,5.014-2.147,1.771-3.693.733-4.42-.04-1.632-1.744-2.048-5.06.132-7.386,1.566-1.671,1.638-4.155.172-5.787-1.916-2.127-2.18-4.241-.819-6.461,2.279-3.719,15.677-1.493,23.591.786.582.165,1.202-.079,1.506-.601.099-.172.158-.363.178-.548Zm-.707-4.228c-.859-.892-1.678-1.85-2.431-2.768.727-.218,1.381-.68,1.823-1.361.212-.317.344-.667.436-1.017-.073,1.889.026,3.68.172,5.146Zm-48.847-49.752l9.744,2.801c-.026.35-.112.687-.264,1.004-.264.502-3.079,1.744-12.77,1.473-.965-.04-1.784.614-1.988,1.559-.198.951.284,1.87,1.182,2.24,7.802,3.211,10.042,5.913,9.592,7.247-.627,1.856-1.579,3.171-2.755,3.799-1.486.806-2.226,2.543-1.751,4.142.476,1.579,1.374,5.43-.449,6.99-1.136.971-2.643,1.077-4.466.33-1.638-.674-3.514-.04-4.459,1.506-.376.608-1.05,1.037-2.008,1.275-.225.059-1.196-.119-2.88-1.579-.073-.059-.139-.125-.211-.185.396-.317.773-.634,1.142-.958.43-.383.674-.938.667-1.513-.007-.581-.271-1.123-.714-1.5-.106-.086-3.277-2.768-7.901-7.498-.37-1.559-.522-3.145-.363-4.677.02-.172.006-.337-.02-.502,3.125,3.845,7.61,5.913,7.875,6.032.178.079.364.119.548.119.376,0,.74-.159.998-.456.383-.443.429-1.083.112-1.579-2.345-3.66-1.777-4.657-1.704-4.757.376-.528,2.107-.476,3.184-.211.601.152,1.229-.132,1.506-.687.277-.548.132-1.222-.344-1.619l-5.074-4.169,4.294-.377c.634-.053,1.136-.548,1.202-1.176.066-.628-.323-1.216-.931-1.401-1.242-.377-2.385-1.123-2.458-1.453,0,0,.013-.053.093-.172.641-.898,5.536-1.731,10.471-1.771.601-.007,1.123-.41,1.275-.991.119-.469-.033-.958-.376-1.288Zm-21.788-5.939c.093-.073.165-.165.231-.258l3.765,1.083,4.545,1.301,1.526.443c-.337.35-.628.68-.859.978-.31.39-.37.912-.165,1.361.198.449.641.753,1.13.78.033,0,1.658.092,3.72.429-2.451.41-4.757,1.116-5.629,2.345-.568.799-.726,1.704-.436,2.55.112.324.284.621.495.892l-3.561.304c-.535.046-.991.41-1.149.925-.159.515.006,1.07.423,1.414l4.711,3.871c-.753.211-1.453.608-1.949,1.288-.654.912-.786,2.094-.383,3.567-2.292-1.711-4.922-4.347-5.51-7.729-.093-.495-.449-.892-.932-1.037-.119-.04-.251-.053-.37-.053-.363,0-.713.145-.971.423-.086.093-1.513,1.638-2.61,3.838-.112-.277-.323-.509-.601-.661-.548-.291-1.222-.159-1.625.31.846-1.572,2.081-3.23,3.885-4.829.317-.284.475-.7.436-1.123-.046-.423-.291-.799-.654-1.011-.106-.059-1.883-1.064-4.149-1.235.146-.119.291-.231.456-.33.429-.264.673-.753.621-1.262-.053-.502-.39-.932-.865-1.11-.099-.033-1.024-.363-2.392-.68.125-.007.251-.007.383-.007.416.013.859-.211,1.103-.575.251-.37.297-.832.132-1.242-.443-1.097-1.348-3.138-2.431-4.697.786.086,1.546.284,1.856.621,1.288,1.586,5.622,6.666,8.344,7.029,1.48.192,2.246-.363,2.629-.865.892-1.176.291-2.775.158-3.085-.073-.165-.172-.311-.297-.436l-3.396-3.297c.139-.053.271-.132.383-.231Zm-10.431,12.77c.363.377.925.502,1.414.311,1.189-.456,2.458-.317,3.435-.059-1.044,1.116-1.876,2.246-2.53,3.349-1.929-2.332-3.911-4.856-5.886-7.558,1.618-.026,3.237.244,4.473.529-.733.958-1.116,1.85-1.182,2.002-.205.489-.093,1.05.277,1.427Zm.628-15.915l3.666,1.057c.099.284.178.462.198.489.066.145.159.277.271.39l6.606,6.408c.007.033.02.066.026.106-.033-.007-.059-.007-.092-.013-1.136-.145-4.367-3.27-6.666-6.091-.006-.013-.013-.02-.02-.033-1.625-1.87-5.582-1.777-6.844-1.321-1.017.363-1.143,1.116-1.149,1.427-.013.304.079,1.07,1.09,1.493.463.231,1.401,1.711,2.266,3.488-2.167.277-4.175.971-5.655,1.612-2.497-3.581-4.948-7.432-7.234-11.508-.31-.548-.614-1.103-.918-1.658l14.454,4.155Zm-168.375-27.733c3.918-14.831,18.26-25.19,34.881-25.19h73.284c15.333,0,28.579,10.346,32.206,25.157,1.955,7.974,4.922,15.512,8.423,22.462.436.865.885,1.724,1.334,2.57,2.755,5.173,5.781,9.995,8.859,14.402,0,.007.006.007.006.013.026.106.059.211.112.31.112.211.271.383.463.495.383.548.773,1.09,1.163,1.625,1.077,1.48,2.16,2.913,3.237,4.287,1.44,1.85,2.867,3.6,4.274,5.245,1.07,1.275,2.127,2.484,3.151,3.627.152.172.304.337.456.502v.007c.885.978,1.744,1.903,2.57,2.781.073.073.139.139.205.211.997,1.05,1.949,2.028,2.841,2.927.324.324.628.628.932.925l.006.007c2.002,1.975,3.667,3.508,4.829,4.552-.502.37-1.017.733-1.559,1.09-1.969,1.295-4.202,2.484-6.626,3.574-3.263,1.467-6.87,2.755-10.656,3.885h-.006c-17.672,5.259-39.129,7.049-46.905,7.551,4.142-11.409,7.102-22.376,8.833-32.767,1.215-7.28,1.81-14.289,1.823-21.008.02-.152.013-.304,0-.449-.033-12.479-2.134-23.941-6.322-34.241-.41-1.017-1.566-1.506-2.576-1.09-1.017.41-1.506,1.566-1.09,2.576,3.799,9.368,5.596,19.284,5.932,29.359-30.415-17.982-58.129-16.846-76.263-12.572-14.547,3.422-25.17,9.209-30.237,12.374.377-9.989,2.312-19.826,6.382-29.107.436-1.004-.02-2.174-1.017-2.61-1.011-.443-2.173.013-2.616,1.017-4.505,10.299-6.778,21.748-6.824,34.214-.02.172-.013.344.007.515.006,6.732.647,13.748,1.962,21.048,1.87,10.392,5.054,21.345,9.52,32.748-11.66-.687-53.458-3.957-71.15-16.106,8.027-6.679,37.147-32.774,46.159-66.916Zm124.582,86.464l13.226,30.032-57.251,36.355c6.831-9.857,18.247-27.548,28.117-48.662,2.702-5.794,5.133-11.502,7.287-17.11,1.645-.086,4.677-.264,8.621-.614Zm-97.952.621c2.325,5.622,4.948,11.343,7.875,17.157,10.696,21.233,23.089,38.997,30.442,48.821l-62.152-36.592,14.25-30.019c4.446.363,7.828.555,9.586.634Zm-88.426-50.902l.463-.119,2.907-.78,1.731-.463,7.439-1.982,8.304-2.213c4.367,2.319,5.675,4.215,5.318,5.265-.628,1.856-1.579,3.171-2.748,3.799-1.493.806-2.226,2.543-1.751,4.142.469,1.579,1.374,5.43-.456,6.989-1.136.971-2.636,1.077-4.466.33-1.632-.674-3.508-.04-4.459,1.506-.37.608-1.05,1.037-2.008,1.275-.224.06-1.195-.119-2.874-1.579-3.435-2.979-7.961-9.943-7.399-16.172Zm-22.429,5.985l10.709-2.861,3.482-.925.766-.205c.35,1.282.773,2.18.813,2.259.251.535.819.832,1.401.74.218-.033.41-.132.581-.264.007,1.467.132,3.079.39,4.836.753,5.186-3.125,9.216-7.141,9.969-3.884.733-6.844-1.572-7.908-6.164-.125-.542-.575-.945-1.116-1.017-.562-.073-2.246-.502-2.695-1.486-.403-.905.277-2.226.918-3.171.37-.548.277-1.275-.198-1.711Zm-41.455,52.818c-.132-.495-.548-.872-1.057-.958-.846-.139-1.691-.145-2.53-.053l6.368-9.196c4.677-.112,7.194,4.585,7.307,4.796.185.357.528.614.925.694.396.073.806-.033,1.11-.297.324-.277,1.738-1.275,2.762-1.116.251.04.614.159.991.76,1.215,1.982-.324,5.952-2.51,8.648-.998,1.222-1.077,2.993-.192,4.314.925,1.381,1.13,2.643.621,3.746-.264.502-3.072,1.744-12.77,1.467-.945-.02-1.784.614-1.989,1.566-.198.945.284,1.87,1.182,2.24,7.802,3.211,10.042,5.906,9.586,7.247-.621,1.85-1.573,3.164-2.748,3.799-1.486.799-2.226,2.543-1.751,4.136.469,1.586,1.374,5.437-.449,6.996-1.136.964-2.643,1.077-4.473.324-1.632-.667-3.508-.033-4.459,1.506-.37.608-1.044,1.037-2.008,1.275-.218.06-1.189-.112-2.873-1.572-3.462-3.012-8.04-10.068-7.379-16.337.013-.172.006-.337-.02-.502,3.125,3.852,7.611,5.919,7.875,6.038.178.079.363.119.542.119.376,0,.746-.165,1.004-.462.383-.443.43-1.083.113-1.572-2.352-3.667-1.777-4.657-1.711-4.763.383-.522,2.114-.476,3.191-.211.601.152,1.222-.132,1.5-.68.284-.555.139-1.229-.337-1.618l-5.074-4.175,4.294-.37c.628-.053,1.13-.548,1.196-1.176.073-.634-.324-1.222-.925-1.407-1.242-.377-2.391-1.116-2.458-1.447,0,0,.013-.059.093-.172.641-.905,5.536-1.731,10.471-1.771.601-.007,1.123-.416,1.268-.998.152-.581-.112-1.189-.634-1.48-2.524-1.407-6.052-2.094-8.476-2.424,1.771-1.691,3.964-3.515,3.997-3.541.396-.33.562-.865.429-1.367Zm-8.535,6.137c.013.126.047.251.099.363.205.449.641.747,1.136.773.033,0,1.658.092,3.719.436-2.451.403-4.756,1.11-5.629,2.339-.568.799-.727,1.711-.436,2.557.112.324.277.614.489.885l-3.554.311c-.535.046-.991.41-1.149.925-.159.509.006,1.07.422,1.407l4.71,3.878c-.753.211-1.46.601-1.949,1.288-.654.912-.786,2.088-.383,3.561-2.187-1.625-4.677-4.103-5.417-7.26l7.941-11.462Zm-14.831,21.411c.185.495.323.806.35.852.251.529.826.832,1.401.74.218-.033.41-.139.581-.264.007,1.467.132,3.079.39,4.836.753,5.186-3.118,9.209-7.141,9.969-2.246.423-4.182-.172-5.615-1.638l10.035-14.494Zm148.992,329.312l-8.595-1.467c1.209-.092,2.444-.608,3.587-1.553,3.838-3.164,8.601-4.076,11.416-4.327-1.513,2.055-4.01,5.219-6.408,7.346Zm3.244.555c2.464-2.51,4.783-5.589,6.144-7.511.436-.614.489-1.407.132-2.074-.344-.647-1.004-1.044-1.737-1.044h-.06c-2.596.079-9.196.72-14.408,5.014-2.147,1.77-3.686.733-4.413-.04-1.638-1.744-2.048-5.06.125-7.379,1.566-1.671,1.638-4.162.172-5.794-1.916-2.127-2.18-4.241-.819-6.461,2.279-3.719,15.683-1.486,23.591.793.581.165,1.202-.086,1.513-.608.099-.172.152-.357.172-.548.119.099.238.185.357.277.443.33,1.044.35,1.506.053.205-.132.357-.324.462-.528.066,1.526.634,2.775.681,2.867.066.139.158.271.271.383l6.606,6.408c.013.04.02.073.026.106-.033,0-.059-.007-.092-.007-1.136-.152-4.367-3.277-6.666-6.098-.006-.007-.013-.02-.02-.026-1.625-1.876-5.583-1.777-6.844-1.328-1.017.363-1.142,1.123-1.149,1.427-.013.311.079,1.07,1.09,1.493.463.238,1.401,1.711,2.266,3.495-4.301.542-7.961,2.748-8.132,2.854-.594.363-.806,1.116-.489,1.737.324.614,1.064.879,1.698.601,2.438-1.05,5.721-.595,7.848-.106-.733.951-1.116,1.843-1.182,2.002-.198.482-.092,1.044.277,1.427.37.377.925.495,1.421.311,1.182-.456,2.451-.317,3.429-.059-3.336,3.574-4.506,7.254-4.876,9.876l-8.898-1.513Zm9.711-29.874c-.866-.898-1.692-1.856-2.438-2.781.746-.225,1.394-.687,1.83-1.348.205-.317.337-.661.429-1.017-.073,1.889.026,3.68.179,5.146Zm9.282,28.751c-.562-.132-1.11-.02-1.553.271.304-.7.661-1.341,1.017-1.896.277.628.601,1.222.964,1.79-.139-.066-.277-.126-.429-.165Zm1.493,4.618c-.073-.839-.079-1.671.007-2.491.02-.172.006-.337-.02-.502,1.203,1.493,2.616,2.715,3.904,3.653l-3.891-.661Zm5.668-5.173c-.654.912-.786,2.088-.383,3.567-2.292-1.711-4.922-4.347-5.51-7.729-.093-.495-.449-.898-.932-1.044-.119-.033-.251-.053-.37-.053-.364,0-.714.152-.971.423-.086.099-1.513,1.645-2.61,3.838-.112-.271-.324-.509-.601-.654-.548-.291-1.222-.159-1.625.311.845-1.572,2.081-3.23,3.884-4.836.317-.284.475-.7.436-1.123-.047-.423-.291-.799-.654-1.011-.106-.059-1.883-1.064-4.149-1.235.146-.119.291-.231.456-.33.429-.264.673-.753.621-1.255-.053-.502-.39-.938-.865-1.11-.099-.04-1.024-.37-2.392-.687.125,0,.258-.007.383,0,.423.007.859-.211,1.103-.581.251-.363.297-.832.132-1.242-.443-1.09-1.348-3.138-2.431-4.69.786.086,1.546.277,1.856.621,1.288,1.586,5.629,6.666,8.344,7.023,1.48.198,2.246-.363,2.629-.865.892-1.169.291-2.775.159-3.085-.066-.159-.172-.311-.297-.436l-3.396-3.297c.139-.053.271-.126.39-.225.416-.357.568-.931.39-1.447-1.618-4.591-2.504-10.253-1.275-11.449.819,1.017,1.658,5.629,1.837,10.312.026.588.429,1.09.997,1.229.568.145,1.156-.099,1.46-.601l.324-.548c-.047,1.863.165,3.799.905,5.417.172.377.502.647.905.74.396.092.812,0,1.13-.258.039-.033,2.603-2.088,5.622-2.993-1.176,1.07-2.405,2.266-3.092,3.145-.304.383-.37.912-.165,1.361.198.449.641.747,1.13.773.033,0,1.658.092,3.719.436-2.451.41-4.757,1.11-5.629,2.339-.568.799-.727,1.711-.436,2.557.112.324.284.614.495.885l-3.561.311c-.535.046-.991.41-1.149.925-.159.509.006,1.07.423,1.407l4.71,3.878c-.753.211-1.453.601-1.949,1.288Zm13.523-8.463l-2.543,3.812-7.214,10.821c-2.246-3.554-1.691-4.525-1.619-4.624.377-.529,2.107-.482,3.184-.218.601.159,1.229-.132,1.506-.68.277-.555.132-1.229-.344-1.619l-5.074-4.175,4.294-.37c.635-.053,1.136-.548,1.203-1.176.066-.634-.324-1.222-.932-1.407-1.242-.377-2.385-1.116-2.458-1.447,0,0,.014-.059.093-.172.641-.905,5.536-1.731,10.471-1.771.601-.007,1.123-.416,1.275-.998.145-.581-.119-1.189-.641-1.48-2.524-1.407-6.052-2.094-8.476-2.425,1.771-1.691,3.964-3.515,3.997-3.541.396-.33.568-.865.429-1.361-.132-.502-.548-.879-1.057-.965-3.805-.628-7.743,1.434-9.857,2.795-.74-3.845.879-8.971.898-9.031.205-.641-.106-1.334-.714-1.612-.614-.271-1.335-.046-1.678.529l-1.777,2.973c-.396-3.508-1.249-7.511-3.072-8.476-.766-.396-1.619-.344-2.411.159-1.889,1.196-2.134,4.083-1.784,7.036-.119-.066-.251-.112-.39-.139-.482-.086-.971.099-1.275.482-.542.687-.813,1.453-.925,2.2-.383-2.002-2.312-13.589,3.165-18.128,1.381-1.149,2.623-1.638,3.706-1.467,1.328.218,2.332,1.427,2.946,2.405.918,1.467,2.63,2.213,4.373,1.903,1.156-.211,2.273.337,3.31,1.625,1.308,1.638-.753,6.269-2.411,9.995-.681,1.526-1.321,2.966-1.81,4.307-.357.984.073,2.015,1.017,2.458.958.449,2.028.112,2.557-.799,1.605-2.761,4.869-7.518,8.654-8.311,5.516-1.15,8.502,4.413,8.621,4.644.185.357.528.614.925.694.396.073.806-.033,1.11-.297.324-.277,1.737-1.282,2.768-1.116.125.02.291.066.469.192l-12.512,18.775Zm28.057-80.683c-.251-1.315-.337-2.636-.205-3.924.02-.172.007-.344-.013-.502.066.086.139.165.218.251v4.175Zm0-9.209c-.192-.502-.344-1.024-.436-1.566-.086-.495-.443-.898-.925-1.037-.125-.04-.251-.053-.376-.053-.363,0-.714.145-.964.416-.093.099-1.513,1.645-2.616,3.838-.112-.271-.317-.502-.594-.654-.555-.291-1.229-.159-1.625.311.845-1.572,2.081-3.23,3.878-4.836.317-.277.482-.694.436-1.116-.04-.423-.284-.799-.654-1.011-.106-.066-1.876-1.07-4.149-1.235.146-.125.297-.231.456-.33.429-.271.674-.76.621-1.262-.046-.502-.383-.931-.859-1.11-.106-.033-1.024-.363-2.391-.687h.377c.423-.007.859-.211,1.11-.575.245-.37.297-.832.132-1.242-.449-1.097-1.348-3.138-2.431-4.697.786.086,1.546.284,1.85.621,1.295,1.586,5.628,6.666,8.35,7.029.297.04.568.046.813.026v9.17Zm-22.772,11.323c-.476-.344-1.83-1.572-1.843-2.735-.007-.628.409-1.268,1.235-1.903,3.35-2.55,6.97-7.307,8.833-9.916.436-.621.489-1.414.132-2.081-.35-.647-1.011-1.037-1.737-1.037h-.06c-2.596.073-9.203.714-14.415,5.014-2.141,1.764-3.686.733-4.413-.046-1.631-1.737-2.048-5.054.132-7.379,1.566-1.671,1.638-4.162.165-5.794-1.909-2.121-2.18-4.235-.819-6.454,2.286-3.726,15.683-1.493,23.598.786.581.165,1.202-.079,1.506-.608.099-.172.158-.357.172-.542.125.092.245.185.363.271.443.33,1.044.35,1.506.053.205-.132.35-.317.456-.529.073,1.526.641,2.781.68,2.867.066.145.165.278.277.383l6.606,6.415c.007.033.014.066.02.106-.026-.007-.059-.007-.093-.013-1.136-.152-4.36-3.27-6.659-6.091-.006-.013-.02-.026-.026-.033-1.619-1.87-5.576-1.777-6.844-1.321-1.011.363-1.143,1.116-1.149,1.42-.007.311.086,1.077,1.096,1.493.463.238,1.401,1.718,2.259,3.495-4.301.548-7.954,2.748-8.132,2.854-.588.363-.799,1.123-.483,1.737.318.614,1.064.879,1.698.608,2.431-1.057,5.721-.601,7.848-.112-.74.958-1.123,1.85-1.189,2.002-.198.489-.093,1.05.277,1.427.37.377.932.495,1.42.311,1.189-.456,2.451-.317,3.435-.059-6.012,6.441-4.988,13.239-4.942,13.543.099.614.614,1.077,1.235,1.11.627.026,1.182-.377,1.347-.978.212-.799.76-1.889,1.387-2.973.363,1.704.964,2.986,1.011,3.085.251.535.819.832,1.4.74.218-.033.41-.132.582-.264.006,1.467.132,3.079.39,4.836.753,5.186-3.125,9.216-7.141,9.969-3.891.733-6.844-1.572-7.908-6.164-.119-.542-.568-.945-1.116-1.017-.555-.073-2.246-.502-2.689-1.493-.41-.898.271-2.22.918-3.164.396-.595.251-1.401-.33-1.817Zm11.786-36.923c-.859-.898-1.685-1.856-2.438-2.781.753-.225,1.394-.687,1.83-1.348.211-.324.344-.667.429-1.024-.066,1.896.033,3.686.178,5.153Zm10.986,10.392l-1.724-1.671c.139-.053.271-.132.39-.231.416-.357.575-.925.39-1.447-1.612-4.585-2.504-10.253-1.269-11.449.819,1.017,1.651,5.635,1.837,10.319.013.337.152.641.376.872v3.607Zm0-16.152c-.323-.509-.693-.892-1.116-1.116-.766-.403-1.625-.35-2.411.152-1.889,1.196-2.14,4.083-1.784,7.042-.119-.066-.251-.119-.39-.139-.482-.086-.978.092-1.282.482-.542.687-.812,1.447-.918,2.193-.383-2.002-2.312-13.589,3.158-18.128,1.387-1.143,2.629-1.638,3.706-1.46.37.059.72.198,1.037.39v10.583Zm0-13.444c-.198-.059-.409-.106-.614-.139-1.856-.304-3.819.383-5.814,2.035-3.171,2.629-4.347,6.91-4.664,10.927-.119-.932-.614-1.81-1.46-2.365-.542-.35-1.149-.529-1.777-.542.377-.694.516-1.486.35-2.266-.185-.872-.694-1.625-1.44-2.107-.746-.489-1.632-.661-2.504-.476-.872.178-1.625.687-2.114,1.434-1.005,1.539-.575,3.614.964,4.618.192.126.396.225.601.304-.39.198-.667.562-.727,1.011-.026.218-.033.449-.033.68-.33-.099-.667-.159-1.011-.152.185-.555.238-1.15.113-1.731-.178-.872-.687-1.625-1.434-2.114-.746-.489-1.638-.654-2.51-.476-.872.185-1.625.694-2.107,1.44-.489.747-.661,1.638-.476,2.51.179.872.687,1.619,1.434,2.107.548.357,1.182.548,1.823.548.02,0,.046-.007.066-.007-.469,1.401.026,2.999,1.321,3.845.548.357,1.183.548,1.823.548.225,0,.456-.026.687-.073.846-.178,1.572-.667,2.061-1.381.595.978,1.275,1.922,1.936,2.755-6.963-1.618-19.192-3.607-22.31,1.48-1.969,3.211-1.572,6.626,1.11,9.606.542.601.489,1.552-.132,2.22-3.224,3.435-2.576,8.383-.132,10.993,2.213,2.358,5.364,2.464,8.027.271,3.838-3.164,8.601-4.07,11.409-4.327-1.737,2.352-4.756,6.17-7.445,8.212-1.916,1.46-2.299,3.012-2.279,4.056.033,1.757,1.149,3.191,2.008,4.03-.965,1.777-1.136,3.369-.516,4.737.806,1.777,2.702,2.53,3.852,2.834,1.599,5.569,5.483,7.498,8.985,7.498.608,0,1.202-.053,1.764-.165,5.226-.978,10.253-6.21,9.275-12.942-.185-1.275-.291-2.405-.337-3.409.508,1.87,1.288,3.719,2.226,5.437v31.142l-14.071,21.114c-.548-.363-1.09-.535-1.539-.601-1.367-.211-2.702.317-3.633.852-1.843-2.603-5.615-5.82-10.735-4.75-2.596.535-4.882,2.325-6.791,4.472,1.896-4.334,3.462-8.601,1.387-11.191-2.101-2.623-4.333-2.847-5.846-2.576-.667.126-1.315-.152-1.658-.7-1.295-2.068-2.94-3.316-4.763-3.614-1.87-.297-3.825.39-5.813,2.041-3.178,2.629-4.354,6.91-4.664,10.92-.013-.079-.013-.165-.026-.251-.185-.872-.693-1.625-1.44-2.107-.535-.357-1.149-.535-1.777-.542.826-1.506.377-3.422-1.084-4.38-1.539-1.004-3.613-.575-4.618.965-1.011,1.539-.581,3.607.958,4.618.198.126.403.225.608.304-.39.192-.674.562-.734,1.004-.026.225-.033.456-.026.687-.337-.099-.674-.159-1.011-.152.185-.555.231-1.149.112-1.737-.185-.872-.693-1.619-1.44-2.107-1.539-1.011-3.607-.575-4.618.965-1.004,1.533-.575,3.607.965,4.618.548.357,1.176.542,1.817.542.026,0,.046-.007.066-.007-.463,1.407.033,2.999,1.328,3.845.562.37,1.196.548,1.823.548,1.063,0,2.107-.509,2.748-1.447.595.978,1.269,1.916,1.936,2.755-6.963-1.625-19.191-3.614-22.31,1.473-1.969,3.217-1.579,6.626,1.11,9.612.542.601.482,1.552-.139,2.213-3.224,3.442-2.576,8.39-.125,11,.581.621,1.229,1.09,1.916,1.394l-96.122-16.404,33.051-53.128c.192-.311.297-.667.297-1.031l.31-40.702c1.592,3.33,3.852,6.309,6.137,8.298,1.407,1.222,3.462,2.59,5.246,2.147,2.061-.509,3.105-1.619,3.62-2.458.271-.443.773-.621,1.209-.443,2.735,1.123,5.292.852,7.181-.76,2.755-2.352,2.213-6.606,1.268-9.764-.119-.403.079-.839.476-1.05,1.235-.667,2.933-2.127,4.004-5.285,1.024-3.039-1.698-6.137-8.106-9.209,10.603-.066,11.588-2.193,11.984-3.039.898-1.942.608-4.188-.819-6.322-.245-.37-.231-.852.04-1.183,2.722-3.343,4.724-8.43,2.709-11.7-.872-1.414-2.015-1.863-2.828-1.989-1.367-.211-2.702.324-3.633.852-1.843-2.596-5.615-5.814-10.735-4.75-2.596.542-4.882,2.332-6.791,4.479,1.896-4.334,3.462-8.608,1.387-11.191-2.101-2.623-4.334-2.847-5.847-2.576-.661.119-1.315-.159-1.658-.7-1.202-1.929-2.708-3.145-4.386-3.534l.39-51.041v-100.581c0-1.097-.885-1.982-1.982-1.982s-1.982.885-1.982,1.982v96.895L11.532,193.288l14.045-20.281c1.751,1.572,3.871,2.2,5.86,2.2.608,0,1.203-.059,1.771-.165,5.219-.984,10.247-6.21,9.269-12.948-.185-1.275-.29-2.405-.337-3.402,1.341,4.909,4.486,9.612,7.677,12.38,1.407,1.229,3.462,2.596,5.245,2.154,2.061-.515,3.105-1.619,3.62-2.458.271-.443.773-.628,1.209-.449,2.735,1.123,5.285.859,7.181-.76,2.755-2.345,2.213-6.606,1.268-9.758-.119-.41.079-.839.475-1.057,1.235-.667,2.933-2.121,3.997-5.278,1.031-3.046-1.691-6.137-8.1-9.216,10.603-.066,11.588-2.193,11.977-3.039.905-1.942.615-4.188-.812-6.322-.245-.363-.231-.852.039-1.183,2.715-3.336,4.724-8.423,2.709-11.7-.872-1.414-2.022-1.856-2.827-1.982-1.368-.211-2.702.317-3.634.852-1.381-1.949-3.845-4.241-7.141-4.823l23.948-34.584,14.204,38.165c.297.793,1.05,1.288,1.856,1.288.231,0,.462-.04.694-.125,1.024-.383,1.546-1.519,1.162-2.55l-14.772-39.678,6.818-1.817c.145.159.291.304.423.436-.964,1.784-1.136,3.369-.515,4.737.806,1.777,2.702,2.53,3.852,2.834,1.599,5.569,5.483,7.498,8.984,7.498.608,0,1.203-.053,1.771-.165,5.219-.978,10.247-6.21,9.269-12.942-.185-1.275-.291-2.405-.337-3.409,1.341,4.909,4.479,9.612,7.67,12.387,1.413,1.222,3.468,2.59,5.252,2.147,2.061-.515,3.105-1.619,3.62-2.458.271-.443.766-.628,1.203-.443,2.742,1.123,5.292.852,7.188-.76,2.755-2.352,2.213-6.606,1.268-9.764-.119-.403.073-.839.476-1.057,1.235-.661,2.933-2.121,3.997-5.278.793-2.332-.634-4.697-4.235-7.069l23.076-6.15c-14.488,24.807-36.025,41.673-36.302,41.891-.482.363-.766.932-.773,1.539-.006.601.258,1.176.727,1.559,13.728,11.237,44.764,15.796,63.474,17.573l-14.402,30.33c-.436.925-.099,2.035.786,2.557l71.705,42.221v146.376Zm-137.471-3.832c.958.443,2.028.106,2.557-.799,1.605-2.768,4.869-7.525,8.654-8.311,5.516-1.15,8.502,4.406,8.621,4.644.185.357.528.608.925.687.396.079.806-.033,1.11-.291.324-.277,1.744-1.282,2.768-1.116.245.033.615.159.984.76,1.216,1.982-.317,5.952-2.51,8.648-.997,1.216-1.07,2.993-.192,4.314.925,1.381,1.13,2.636.621,3.746-.264.495-3.072,1.737-12.763,1.467-.945-.026-1.79.614-1.995,1.559-.198.951.284,1.87,1.183,2.24,7.802,3.211,10.041,5.913,9.592,7.247-.628,1.856-1.579,3.171-2.755,3.799-1.486.806-2.226,2.543-1.751,4.142.476,1.579,1.374,5.437-.449,6.99-1.136.971-2.636,1.083-4.466.33-1.638-.674-3.514-.04-4.459,1.506-.376.608-1.05,1.037-2.008,1.275-.225.059-1.196-.119-2.88-1.579-3.462-3.006-8.033-10.061-7.379-16.331.02-.172.006-.337-.02-.502,3.125,3.845,7.611,5.913,7.875,6.032.178.079.363.119.548.119.37,0,.74-.159.998-.456.383-.443.429-1.083.112-1.579-2.345-3.66-1.777-4.657-1.704-4.757.377-.529,2.114-.476,3.184-.211.601.152,1.229-.132,1.506-.687.277-.548.132-1.222-.344-1.619l-5.074-4.169,4.294-.37c.634-.059,1.136-.555,1.203-1.183.066-.628-.324-1.216-.932-1.401-1.123-.337-2.378-1.09-2.457-1.453,0,0,.013-.053.092-.165.641-.905,5.536-1.737,10.471-1.777.601-.007,1.123-.41,1.275-.991.145-.581-.119-1.189-.641-1.48-2.524-1.407-6.051-2.101-8.476-2.425,1.771-1.698,3.964-3.521,3.997-3.548.396-.33.568-.859.429-1.361-.132-.502-.548-.872-1.057-.958-3.799-.634-7.742,1.427-9.857,2.788-.74-3.838.879-8.971.898-9.031.205-.634-.105-1.328-.713-1.605-.615-.277-1.335-.053-1.678.529l-1.777,2.973c-.337-2.966-.991-6.276-2.286-7.815l.079-10.266c.945.449,1.678,1.374,2.167,2.154.918,1.467,2.636,2.213,4.367,1.896,1.176-.211,2.279.344,3.316,1.632,1.308,1.632-.753,6.269-2.412,9.989-.68,1.526-1.321,2.966-1.81,4.314-.357.978.073,2.015,1.017,2.458Zm-5.774,1.183c.568.145,1.156-.099,1.46-.601l.324-.548c-.046,1.856.165,3.799.905,5.417.172.37.502.647.898.74.403.092.819-.007,1.136-.264.04-.026,2.603-2.081,5.622-2.993-1.176,1.077-2.405,2.266-3.092,3.145-.31.39-.37.918-.165,1.367.198.449.641.747,1.13.773.033,0,1.658.092,3.72.436-2.451.403-4.757,1.11-5.629,2.339-.568.799-.727,1.704-.436,2.55.112.324.284.621.495.892l-3.561.304c-.536.046-.991.416-1.15.925-.159.515.006,1.07.423,1.414l4.71,3.871c-.753.211-1.453.608-1.949,1.288-.654.918-.786,2.101-.383,3.574-2.292-1.704-4.915-4.34-5.516-7.736-.02-.132-.066-.251-.119-.363l.053-7.234.02-2.662v-.172l.033-3.653.033-4.889c.013.284.026.568.04.852.026.581.429,1.083.998,1.229Zm110.365-202.458c-10.207-20.268-20.255-46.674-20.532-72.478,3.138-2.14,14.699-9.44,31.374-13.338,17.791-4.155,45.214-5.146,75.246,13.424-.277,25.778-9.572,52.144-19.02,72.379-12.506,26.775-27.535,47.982-32.265,54.383-5.047-6.329-21.279-27.529-34.802-54.37Zm154.912,339.744c-.093-.159-.218-.297-.377-.41-.469-.344-1.823-1.572-1.843-2.735-.006-.628.41-1.268,1.235-1.896,3.482-2.649,7.333-7.822,8.833-9.923.436-.614.489-1.414.132-2.074-.344-.647-1.004-1.044-1.737-1.044h-.06c-2.596.079-9.196.72-14.408,5.014-2.147,1.77-3.686.733-4.413-.04-1.639-1.744-2.055-5.06.125-7.386,1.565-1.671,1.638-4.162.172-5.787-1.916-2.127-2.18-4.241-.819-6.461,2.279-3.719,15.677-1.493,23.591.786.581.172,1.202-.079,1.513-.601.099-.172.152-.363.172-.548.119.092.238.185.357.277.443.324,1.044.343,1.506.046.204-.132.357-.317.456-.529.073,1.533.641,2.781.687,2.867.066.145.159.277.271.39l6.606,6.408c.007.033.02.073.026.106-.033,0-.059-.007-.092-.013-1.136-.145-4.367-3.27-6.666-6.091-.006-.013-.013-.02-.02-.033-1.625-1.87-5.582-1.77-6.844-1.321-1.017.363-1.143,1.116-1.149,1.427-.013.304.079,1.07,1.09,1.493.463.231,1.401,1.711,2.266,3.495-4.301.542-7.961,2.742-8.132,2.854-.594.357-.806,1.116-.489,1.731.324.621,1.064.885,1.698.608,2.438-1.057,5.721-.601,7.848-.106-.733.951-1.116,1.843-1.183,1.995-.205.489-.093,1.05.277,1.427.363.377.925.502,1.42.31,1.182-.456,2.451-.317,3.429-.053-6.011,6.435-4.988,13.232-4.935,13.536.02.112.053.225.099.324l-10.643,1.955Zm11.416-37.332c-.865-.892-1.691-1.856-2.438-2.775.746-.231,1.394-.687,1.823-1.354.211-.311.344-.654.436-1.011-.073,1.889.026,3.673.178,5.14Zm1.797,34.901c.251-.766.74-1.731,1.295-2.682.205.945.476,1.764.687,2.319l-1.982.363Zm8.965-1.652c-.059-.793-.059-1.585.02-2.365.02-.172.006-.337-.02-.502.747.912,1.566,1.724,2.385,2.431l-2.385.436Zm5.682-5.054c-.654.912-.786,2.094-.383,3.567-2.292-1.711-4.922-4.347-5.516-7.729-.086-.489-.443-.892-.925-1.037-.119-.033-.251-.053-.376-.053-.357,0-.714.145-.965.423-.093.092-1.513,1.638-2.61,3.838-.112-.277-.323-.509-.601-.661-.548-.291-1.229-.159-1.625.31.846-1.566,2.081-3.23,3.885-4.829.317-.284.475-.7.436-1.123-.046-.423-.291-.799-.654-1.011-.106-.059-1.883-1.064-4.149-1.235.139-.119.291-.231.449-.33.436-.264.674-.753.627-1.262-.053-.502-.39-.931-.865-1.103-.099-.04-1.024-.37-2.391-.687.132-.007.258-.007.383-.007.436-.007.859-.211,1.103-.575.251-.37.297-.832.132-1.242-.443-1.097-1.348-3.138-2.431-4.697.786.086,1.546.284,1.856.621,1.288,1.585,5.622,6.672,8.344,7.029,1.473.192,2.24-.363,2.629-.865.892-1.169.291-2.775.158-3.085-.066-.165-.172-.31-.297-.436l-3.396-3.297c.139-.053.271-.132.383-.231.416-.35.575-.925.39-1.44-1.612-4.591-2.497-10.26-1.268-11.449.819,1.011,1.658,5.629,1.837,10.313.026.581.429,1.083.997,1.229.562.145,1.156-.099,1.46-.601l.324-.548c-.046,1.856.165,3.799.905,5.417.172.37.502.647.898.74.403.092.819-.007,1.136-.264.04-.026,2.603-2.081,5.622-2.993-1.176,1.077-2.405,2.266-3.092,3.145-.31.39-.37.912-.165,1.361.198.449.641.753,1.13.78.033,0,1.658.092,3.72.436-2.451.403-4.757,1.11-5.629,2.339-.568.799-.726,1.704-.436,2.55.112.324.284.621.495.892l-3.561.304c-.535.046-.991.416-1.149.925-.159.515.006,1.07.423,1.414l4.711,3.871c-.753.218-1.453.608-1.949,1.288Zm12.195-11.436l1.718,2.979,1.519,2.643.225.39,2.748,4.757.674,1.169-16.688,3.072c-.575-1.473-.297-1.962-.245-2.028.376-.528,2.107-.476,3.184-.211.601.152,1.222-.132,1.506-.687.277-.548.132-1.222-.344-1.612l-5.074-4.175,4.294-.37c.634-.059,1.136-.555,1.202-1.183.066-.628-.323-1.216-.931-1.401-1.123-.337-2.378-1.09-2.458-1.453,0,0,.013-.053.093-.165.562-.786,4.347-1.519,8.575-1.724Zm-3.924-6.798l1.427,2.471c-1.242-.284-2.444-.482-3.449-.621.661-.634,1.381-1.282,2.022-1.85Zm-6.401-11.099l2.656,4.611,1.486,2.576c-2.524.502-4.816,1.751-6.25,2.682-.74-3.838.878-8.971.898-9.031.205-.634-.106-1.328-.714-1.605-.614-.277-1.334-.053-1.678.529l-1.777,2.973c-.396-3.515-1.249-7.518-3.072-8.476-.766-.403-1.619-.35-2.411.152-1.889,1.196-2.134,4.083-1.784,7.042-.119-.066-.251-.112-.39-.139-.482-.086-.971.092-1.275.482-.542.687-.812,1.447-.925,2.193-.383-2.002-2.312-13.589,3.164-18.128,1.11-.918,2.134-1.42,3.059-1.48l9.011,15.617Zm-10.854-180.108v-101.017c0-1.097-.885-1.982-1.982-1.982s-1.982.885-1.982,1.982v50.466c-1.427-.456-3.045-.601-4.823-.231-2.596.542-4.889,2.325-6.792,4.479,1.89-4.334,3.455-8.608,1.387-11.191-2.101-2.629-4.34-2.854-5.847-2.583-.667.126-1.321-.152-1.658-.694-1.295-2.074-2.946-3.323-4.77-3.614-1.863-.304-3.818.383-5.813,2.035-3.171,2.629-4.347,6.91-4.664,10.927-.119-.932-.615-1.81-1.46-2.365-.548-.363-1.169-.528-1.777-.535.819-1.513.376-3.429-1.09-4.387-.74-.489-1.632-.654-2.504-.476-.872.185-1.625.694-2.114,1.44-.489.747-.654,1.638-.476,2.51.185.872.694,1.619,1.44,2.107.192.126.396.225.601.304-.39.198-.667.562-.727,1.011-.026.218-.033.449-.033.68-.324-.099-.667-.159-1.011-.152.469-1.401-.033-2.999-1.321-3.845-.746-.489-1.638-.654-2.51-.476-.872.185-1.619.694-2.107,1.44-.489.746-.661,1.632-.476,2.504.178.872.687,1.625,1.434,2.114.562.37,1.196.542,1.823.542h.066c-.185.555-.238,1.143-.112,1.731.178.872.687,1.625,1.433,2.114.555.357,1.183.542,1.823.542.224,0,.456-.02.687-.066.846-.178,1.572-.667,2.061-1.381.595.978,1.275,1.922,1.936,2.755-6.963-1.619-19.191-3.607-22.309,1.48-1.969,3.211-1.573,6.62,1.11,9.606.542.601.489,1.552-.132,2.213-3.224,3.442-2.576,8.39-.125,11,2.207,2.358,5.358,2.464,8.02.271,3.838-3.164,8.601-4.076,11.409-4.327-1.737,2.352-4.756,6.164-7.445,8.212-1.916,1.46-2.299,3.013-2.279,4.056.033,1.757,1.15,3.184,2.008,4.03-.964,1.777-1.136,3.369-.515,4.73.806,1.784,2.702,2.537,3.852,2.834,1.599,5.576,5.49,7.505,8.985,7.505.608,0,1.202-.059,1.77-.165,5.219-.978,10.247-6.21,9.269-12.942-.185-1.275-.291-2.405-.337-3.409,1.341,4.909,4.479,9.612,7.67,12.387,1.414,1.222,3.462,2.59,5.252,2.147,2.061-.515,3.105-1.618,3.62-2.458.271-.443.766-.628,1.202-.443,2.365.971,4.585.898,6.369-.178v.608l1.07,151.919c0,.344.093.68.264.978l3.065,5.318c-1.09.311-2.213.938-3.336,1.876-3.177,2.629-4.353,6.91-4.664,10.927-.013-.086-.013-.172-.026-.251-.185-.872-.694-1.625-1.44-2.114-.548-.357-1.163-.529-1.777-.535.826-1.506.376-3.422-1.083-4.38-1.539-1.011-3.614-.575-4.618.958-1.011,1.539-.581,3.614.958,4.624.198.126.396.218.608.304-.39.192-.674.562-.734,1.004-.026.225-.033.449-.033.68-.33-.099-.667-.159-1.004-.152.462-1.401-.033-2.993-1.328-3.845-1.533-1.004-3.607-.575-4.618.965-1.004,1.539-.575,3.614.964,4.618.562.37,1.196.548,1.823.548.02,0,.04-.007.06-.007-.463,1.401.033,2.999,1.328,3.845.562.37,1.196.542,1.817.542,1.07,0,2.107-.509,2.755-1.44.595.978,1.268,1.916,1.929,2.748-6.956-1.619-19.185-3.607-22.303,1.48-1.969,3.211-1.579,6.626,1.11,9.606.542.601.482,1.559-.139,2.22-3.224,3.442-2.576,8.383-.125,10.993,2.213,2.358,5.358,2.471,8.02.277,3.838-3.164,8.602-4.076,11.416-4.327-1.738,2.345-4.763,6.164-7.452,8.205-1.916,1.46-2.292,3.012-2.279,4.056.026,1.539.885,2.821,1.672,3.68l-79.514,14.626-35.364-57.211v-239.063l66.48-42.208c.826-.529,1.149-1.579.753-2.477l-13.384-30.389c16.014-1.652,41.666-5.655,55.573-15.062.218.205.436.403.654.595,1.407,1.222,3.462,2.59,5.245,2.147,2.061-.515,3.105-1.619,3.62-2.458.277-.443.773-.621,1.209-.443,2.735,1.123,5.285.852,7.181-.76,2.755-2.352,2.213-6.606,1.275-9.764-.126-.403.073-.839.469-1.05,1.235-.667,2.933-2.127,4.003-5.285,1.024-3.039-1.698-6.137-8.106-9.209,10.603-.066,11.587-2.193,11.984-3.039.205-.443.35-.905.436-1.381l15.082,4.334-19.297,39.605c-.476.984-.073,2.167.912,2.649.284.132.581.198.872.198.733,0,1.44-.41,1.784-1.116l18.782-38.555,18.802,29.279c-.258,1.136-.417,2.299-.509,3.442-.119-.932-.614-1.817-1.46-2.372-.548-.357-1.169-.529-1.777-.535.819-1.506.377-3.422-1.083-4.38-.747-.489-1.638-.661-2.51-.476-.872.178-1.625.694-2.107,1.434-.489.746-.661,1.638-.482,2.51.185.872.694,1.625,1.44,2.114.192.125.396.218.608.304-.39.192-.674.562-.733,1.004-.026.225-.033.449-.033.68-.323-.099-.661-.159-1.011-.152.469-1.401-.026-2.993-1.321-3.838-1.539-1.011-3.607-.581-4.618.958-1.011,1.539-.575,3.614.958,4.618.568.37,1.196.548,1.823.548.026,0,.046-.007.066-.007-.185.555-.238,1.149-.112,1.737.178.872.693,1.618,1.433,2.107.555.363,1.183.548,1.823.548.231,0,.462-.026.687-.073.852-.178,1.579-.667,2.068-1.381.594.984,1.268,1.922,1.929,2.755-6.957-1.619-19.191-3.607-22.303,1.48-1.975,3.211-1.579,6.626,1.11,9.606.542.608.482,1.559-.139,2.22-3.224,3.442-2.576,8.383-.125,10.993,2.213,2.358,5.358,2.471,8.02.278,3.838-3.164,8.601-4.076,11.416-4.327-1.737,2.345-4.763,6.164-7.452,8.205-1.916,1.46-2.292,3.012-2.279,4.056.033,1.764,1.15,3.191,2.008,4.03-.958,1.784-1.136,3.369-.515,4.737.813,1.784,2.702,2.53,3.858,2.834,1.599,5.569,5.483,7.505,8.978,7.505.608,0,1.202-.059,1.771-.165,5.219-.984,10.246-6.21,9.269-12.948-.185-1.275-.291-2.405-.337-3.402,1.341,4.902,4.486,9.606,7.67,12.38,1.414,1.229,3.475,2.59,5.252,2.147,2.061-.509,3.105-1.619,3.62-2.458.271-.436.773-.621,1.209-.443,2.735,1.123,5.285.852,7.181-.76.932-.793,1.486-1.804,1.771-2.92l18.101,28.183-90.546,64.095Zm-48.629-8.126c-.469-.33-1.817-1.546-1.837-2.722-.013-.634.403-1.275,1.235-1.909,3.482-2.643,7.333-7.815,8.833-9.916.436-.621.489-1.414.132-2.081-.344-.647-1.011-1.044-1.738-1.044-.02,0-.04.007-.059.007-2.596.073-9.203.713-14.415,5.014-2.141,1.764-3.686.733-4.413-.046-1.632-1.737-2.048-5.054.132-7.379,1.565-1.671,1.638-4.162.172-5.794-1.916-2.121-2.187-4.235-.826-6.454,2.286-3.726,15.684-1.493,23.598.786.581.165,1.202-.079,1.506-.608.099-.172.159-.357.178-.548.119.099.238.192.357.277.443.33,1.044.35,1.506.053.204-.132.35-.317.455-.529.073,1.526.641,2.781.681,2.867.073.145.165.271.277.383l6.606,6.415c.007.033.013.066.02.106-.026-.007-.06-.007-.093-.013-1.136-.152-4.36-3.27-6.659-6.098l-.026-.026c-1.618-1.87-5.576-1.777-6.844-1.328-1.011.37-1.143,1.123-1.15,1.427-.006.311.086,1.077,1.097,1.493.463.238,1.401,1.718,2.259,3.495-4.294.548-7.954,2.748-8.132,2.854-.588.363-.799,1.123-.482,1.737.317.614,1.064.879,1.698.601,2.431-1.05,5.721-.595,7.848-.106-.74.951-1.123,1.843-1.183,2.002-.205.489-.099,1.05.271,1.427.37.377.931.495,1.42.311,1.189-.456,2.457-.317,3.435-.059-6.011,6.441-4.988,13.233-4.942,13.543.099.614.615,1.077,1.242,1.11.614.026,1.176-.376,1.341-.978.218-.799.76-1.889,1.387-2.973.363,1.704.964,2.986,1.011,3.085.251.529.819.832,1.401.74.218-.033.41-.132.581-.264.007,1.467.132,3.079.39,4.836.753,5.186-3.125,9.216-7.141,9.969-3.891.727-6.838-1.572-7.908-6.17-.119-.535-.568-.938-1.116-1.011-.555-.073-2.246-.502-2.689-1.493-.41-.898.271-2.22.918-3.171.403-.595.251-1.401-.337-1.817Zm11.792-36.916c-.859-.892-1.685-1.85-2.431-2.775.727-.218,1.381-.674,1.823-1.354.212-.324.344-.667.436-1.024-.073,1.896.026,3.686.172,5.153Zm5.675,27.198c-.119-.271-.323-.509-.601-.654-.548-.291-1.229-.159-1.625.311.846-1.572,2.081-3.23,3.878-4.836.317-.277.482-.7.436-1.116-.04-.423-.284-.799-.647-1.011-.112-.066-1.883-1.07-4.149-1.235.139-.126.291-.238.449-.33.429-.271.674-.76.621-1.262-.046-.502-.383-.931-.859-1.11-.099-.033-1.024-.37-2.391-.687h.383c.449.013.852-.211,1.103-.581.251-.363.297-.832.132-1.242-.449-1.09-1.348-3.131-2.431-4.69.786.086,1.546.284,1.85.621,1.295,1.586,5.629,6.666,8.351,7.029,1.48.192,2.24-.37,2.622-.872.899-1.169.291-2.775.159-3.079-.066-.165-.165-.317-.297-.436l-3.395-3.297c.139-.053.271-.132.39-.231.416-.357.575-.932.39-1.447-1.612-4.585-2.497-10.253-1.268-11.449.819,1.017,1.658,5.635,1.837,10.319.02.581.423,1.083.991,1.229.568.145,1.163-.106,1.46-.608l.33-.542c-.046,1.856.165,3.792.905,5.417.172.37.502.641.898.74.403.092.819-.007,1.136-.264.918-.747,3.158-2.24,5.602-2.973-1.169,1.07-2.385,2.253-3.078,3.125-.304.39-.364.912-.165,1.361.205.449.641.747,1.136.773.033.007,1.658.093,3.72.436-2.451.41-4.757,1.116-5.629,2.339-.575.806-.726,1.711-.436,2.557.112.324.277.621.489.885l-3.554.311c-.535.046-.991.41-1.15.925-.158.515.007,1.07.423,1.414l4.711,3.871c-.753.211-1.46.608-1.949,1.288-.654.912-.786,2.094-.39,3.567-2.293-1.711-4.915-4.347-5.51-7.729-.086-.495-.443-.898-.925-1.037-.125-.04-.251-.053-.376-.053-.364,0-.714.145-.964.416-.093.099-1.513,1.645-2.61,3.838Zm5.094,3.184c3.125,3.845,7.61,5.913,7.875,6.032.178.079.364.119.542.119.376,0,.746-.159,1.004-.456.383-.449.423-1.09.112-1.579-2.352-3.66-1.784-4.657-1.711-4.757.383-.529,2.114-.482,3.191-.211.594.145,1.222-.139,1.5-.687.277-.555.139-1.222-.337-1.619l-5.074-4.175,4.294-.37c.628-.053,1.13-.548,1.196-1.176.066-.628-.324-1.216-.925-1.401-1.242-.383-2.392-1.123-2.458-1.453,0,0,.007-.059.093-.172.641-.898,5.536-1.731,10.471-1.771.601-.007,1.123-.416,1.268-.998.152-.581-.112-1.189-.634-1.48-2.524-1.407-6.052-2.094-8.476-2.425,1.771-1.691,3.964-3.515,3.997-3.541.396-.33.562-.865.43-1.361-.132-.502-.548-.879-1.057-.958-3.812-.634-7.749,1.427-9.857,2.788-.747-3.838.872-8.971.892-9.031.204-.641-.099-1.334-.714-1.605-.608-.277-1.335-.053-1.678.522l-1.777,2.973c-.396-3.508-1.248-7.511-3.065-8.469-.766-.403-1.625-.35-2.411.152-1.89,1.196-2.141,4.083-1.784,7.042-.119-.066-.251-.119-.39-.145-.489-.086-.978.099-1.282.482-.542.694-.806,1.453-.918,2.2-.383-2.002-2.312-13.589,3.164-18.128,1.381-1.143,2.623-1.638,3.706-1.467,1.321.218,2.332,1.427,2.946,2.411.912,1.467,2.636,2.207,4.367,1.896,1.162-.211,2.279.337,3.316,1.632,1.308,1.632-.76,6.263-2.418,9.989-.674,1.526-1.321,2.966-1.803,4.307-.357.984.073,2.022,1.017,2.458.938.443,2.035.099,2.55-.793,1.612-2.768,4.875-7.525,8.654-8.317,1.665-.344,3.092-.086,4.287.462v46.878c-.165.595-.449,1.116-.898,1.5-1.13.965-2.636,1.077-4.466.33-1.632-.674-3.508-.04-4.459,1.5-.37.614-1.051,1.044-2.008,1.282-.231.059-1.196-.119-2.874-1.579-3.462-3.006-8.04-10.061-7.38-16.337.014-.172.007-.337-.02-.495Zm-43.721,49.27c-.661.119-1.314-.152-1.658-.7-1.295-2.068-2.94-3.316-4.763-3.614-1.863-.304-3.825.383-5.813,2.035-3.178,2.636-4.354,6.917-4.664,10.934-.119-.938-.621-1.817-1.467-2.372-.548-.357-1.163-.529-1.777-.535.383-.694.515-1.486.357-2.273-.185-.872-.694-1.619-1.44-2.107s-1.638-.661-2.51-.476c-.872.178-1.619.694-2.107,1.434-.489.747-.661,1.638-.476,2.51.178.872.693,1.625,1.433,2.114.192.125.396.218.608.304-.39.192-.673.562-.726,1.004-.033.225-.04.449-.033.68-.33-.099-.667-.159-1.011-.152.463-1.401-.033-2.993-1.328-3.838-.74-.489-1.632-.661-2.504-.476-.872.178-1.625.687-2.114,1.434-.489.747-.654,1.638-.476,2.51.185.872.694,1.619,1.44,2.107.562.37,1.196.548,1.823.548.02,0,.04-.007.06-.007-.185.555-.231,1.149-.113,1.737.185.872.694,1.619,1.44,2.107.548.363,1.176.548,1.817.548.231,0,.463-.026.694-.073.845-.178,1.572-.667,2.061-1.381.595.984,1.269,1.922,1.936,2.761-6.963-1.625-19.191-3.614-22.31,1.473-1.969,3.211-1.579,6.626,1.11,9.606.542.601.482,1.559-.132,2.22-3.231,3.442-2.583,8.383-.132,10.993,2.213,2.358,5.364,2.464,8.02.277,3.838-3.164,8.602-4.076,11.416-4.327-1.738,2.345-4.764,6.164-7.452,8.205-1.916,1.46-2.292,3.012-2.273,4.056.026,1.764,1.15,3.191,2.002,4.03-.958,1.784-1.13,3.369-.516,4.737.813,1.784,2.709,2.53,3.858,2.834,1.599,5.569,5.483,7.505,8.985,7.505.601,0,1.196-.059,1.764-.165,5.219-.984,10.247-6.21,9.269-12.948-.185-1.275-.291-2.405-.337-3.409,1.341,4.908,4.486,9.612,7.677,12.387,1.407,1.229,3.462,2.59,5.252,2.147,2.054-.509,3.105-1.619,3.62-2.458.271-.436.766-.621,1.202-.443,2.742,1.123,5.292.852,7.181-.76,2.755-2.352,2.213-6.606,1.275-9.764-.125-.403.073-.839.469-1.05,1.235-.667,2.933-2.127,4.004-5.285,1.024-3.039-1.698-6.131-8.106-9.209,10.603-.066,11.594-2.193,11.984-3.039.898-1.942.608-4.188-.819-6.322-.245-.37-.225-.852.039-1.183,2.722-3.343,4.73-8.43,2.709-11.7-.865-1.414-2.015-1.863-2.827-1.988-1.368-.211-2.702.324-3.633.852-1.843-2.596-5.615-5.814-10.735-4.75-2.59.542-4.882,2.332-6.792,4.479,1.896-4.334,3.462-8.608,1.387-11.191-2.101-2.623-4.34-2.847-5.847-2.576Zm-17.401,10.9c.212-.317.344-.667.429-1.017-.073,1.889.026,3.68.178,5.146-.859-.892-1.685-1.85-2.431-2.768.72-.218,1.374-.68,1.823-1.361Zm-.059,54.714c-3.884.727-6.838-1.579-7.901-6.17-.125-.535-.575-.945-1.116-1.011-.562-.079-2.253-.509-2.695-1.493-.403-.905.277-2.22.918-3.171.403-.595.257-1.401-.324-1.817-.475-.344-1.83-1.572-1.843-2.728-.013-.634.403-1.275,1.235-1.903,3.475-2.649,7.333-7.822,8.826-9.923.443-.614.489-1.414.132-2.074-.344-.647-1.004-1.044-1.738-1.044h-.059c-2.596.079-9.196.72-14.408,5.014-2.147,1.771-3.686.733-4.413-.04-1.632-1.744-2.048-5.06.125-7.386,1.566-1.671,1.638-4.155.172-5.787-1.909-2.127-2.18-4.241-.819-6.461,2.279-3.719,15.683-1.493,23.591.786.581.172,1.209-.079,1.513-.601.099-.172.152-.363.172-.548.119.092.238.185.364.277.443.324,1.037.35,1.499.046.205-.132.357-.317.463-.529.066,1.533.641,2.781.681,2.867.066.145.158.277.277.39l6.6,6.408c.013.033.02.073.026.106-.033,0-.059-.007-.093-.013-1.136-.145-4.36-3.27-6.666-6.091-.006-.013-.013-.02-.02-.033-1.625-1.87-5.582-1.771-6.844-1.321-1.017.363-1.143,1.116-1.15,1.427-.006.311.079,1.07,1.09,1.493.469.238,1.401,1.711,2.266,3.495-4.301.542-7.954,2.742-8.132,2.854-.594.357-.806,1.116-.489,1.731.324.621,1.064.885,1.698.608,2.438-1.057,5.721-.601,7.855-.106-.74.951-1.123,1.843-1.189,1.995-.198.489-.093,1.05.277,1.427.37.377.925.502,1.42.311,1.182-.456,2.451-.317,3.435-.053-6.018,6.435-4.994,13.233-4.942,13.536.099.614.615,1.077,1.235,1.11.621.026,1.183-.377,1.341-.978.218-.799.766-1.889,1.387-2.966.37,1.698.965,2.986,1.011,3.085.251.529.826.832,1.401.74.225-.04.416-.139.581-.264.007,1.46.139,3.072.39,4.829.753,5.193-3.118,9.216-7.141,9.976Zm10.286-27.588c-.119-.033-.244-.053-.37-.053-.363,0-.714.145-.971.423-.086.092-1.513,1.638-2.61,3.838-.112-.277-.317-.509-.601-.661-.548-.291-1.222-.152-1.618.311.839-1.566,2.074-3.231,3.878-4.829.317-.284.482-.7.436-1.123-.039-.423-.284-.799-.654-1.011-.106-.059-1.883-1.064-4.149-1.235.146-.119.297-.231.456-.33.43-.264.674-.753.621-1.255-.053-.509-.383-.938-.859-1.11-.105-.04-1.031-.37-2.391-.687.125-.007.251-.007.376-.007.456-.007.859-.211,1.11-.575.244-.37.297-.832.125-1.242-.443-1.097-1.347-3.138-2.424-4.697.78.086,1.539.284,1.85.621,1.288,1.586,5.629,6.672,8.344,7.029,1.48.192,2.246-.363,2.629-.865.892-1.169.291-2.775.159-3.085-.066-.165-.172-.311-.297-.436l-3.396-3.297c.139-.053.271-.132.39-.231.416-.35.568-.925.39-1.44-1.619-4.591-2.504-10.26-1.275-11.449.826,1.011,1.658,5.629,1.837,10.312.026.588.429,1.083.997,1.229.568.145,1.163-.099,1.46-.601l.324-.548c-.04,1.863.172,3.799.905,5.417.172.377.502.647.905.74.396.092.819-.007,1.136-.264.918-.747,3.158-2.233,5.602-2.973-1.176,1.07-2.392,2.253-3.079,3.125-.304.39-.37.918-.165,1.367.205.449.641.747,1.13.773.033,0,1.658.092,3.719.436-2.451.403-4.756,1.11-5.628,2.339-.568.799-.72,1.704-.436,2.55.112.324.284.621.495.892l-3.561.304c-.535.046-.991.416-1.149.925-.159.515.006,1.07.423,1.414l4.711,3.878c-.753.211-1.453.601-1.949,1.282-.654.912-.786,2.094-.383,3.567-2.292-1.711-4.915-4.347-5.51-7.729-.086-.489-.449-.892-.932-1.037Zm10.96-33.798c1.308,1.632-.753,6.269-2.412,9.989-.68,1.526-1.321,2.966-1.81,4.314-.357.978.073,2.015,1.017,2.458.958.443,2.028.106,2.556-.799,1.612-2.768,4.876-7.525,8.654-8.311,5.516-1.156,8.502,4.406,8.621,4.644.192.357.528.614.925.687.396.079.806-.033,1.11-.291.324-.277,1.737-1.275,2.768-1.116.244.033.614.159.984.76,1.222,1.982-.317,5.952-2.51,8.648-.991,1.222-1.07,2.993-.185,4.314.918,1.381,1.13,2.636.615,3.746-.264.495-3.065,1.737-12.763,1.467-.945-.033-1.79.614-1.989,1.566-.205.945.284,1.863,1.176,2.233,7.802,3.211,10.042,5.913,9.593,7.247-.628,1.856-1.579,3.171-2.748,3.805-1.493.799-2.233,2.543-1.757,4.136.476,1.579,1.374,5.437-.449,6.99-1.136.971-2.636,1.083-4.466.33-1.638-.674-3.514-.04-4.459,1.506-.376.608-1.05,1.037-2.008,1.275-.225.059-1.196-.112-2.88-1.579-3.455-3.006-8.033-10.061-7.379-16.331.02-.172.006-.337-.013-.502,3.118,3.845,7.604,5.913,7.875,6.038.172.073.357.112.542.112.377,0,.74-.159.998-.456.383-.443.429-1.083.112-1.579-2.345-3.66-1.777-4.651-1.704-4.757.376-.529,2.107-.476,3.184-.211.601.152,1.229-.132,1.506-.687.277-.548.139-1.222-.344-1.612l-5.074-4.175,4.294-.37c.634-.06,1.136-.548,1.203-1.183.066-.628-.324-1.216-.932-1.401-1.242-.377-2.385-1.123-2.451-1.453,0,0,.006-.053.086-.165.647-.905,5.536-1.731,10.478-1.777.594,0,1.116-.41,1.269-.991.145-.581-.113-1.189-.641-1.48-2.517-1.407-6.052-2.101-8.476-2.425,1.771-1.698,3.964-3.521,3.997-3.548.396-.33.568-.859.436-1.361-.139-.495-.555-.872-1.064-.958-3.805-.628-7.743,1.427-9.857,2.788-.74-3.838.879-8.971.898-9.031.205-.634-.106-1.328-.714-1.605-.615-.277-1.335-.053-1.678.529l-1.777,2.973c-.396-3.515-1.248-7.518-3.072-8.476-.76-.403-1.619-.344-2.411.152-1.89,1.196-2.134,4.083-1.784,7.042-.119-.066-.251-.112-.39-.139-.482-.086-.971.092-1.275.482-.542.687-.812,1.447-.925,2.2-.383-2.002-2.312-13.589,3.164-18.134,1.381-1.143,2.629-1.632,3.706-1.46,1.328.211,2.332,1.427,2.946,2.405.918,1.467,2.629,2.213,4.374,1.896,1.163-.205,2.279.344,3.31,1.632Zm-153.009-94.233c-3.171,2.636-4.347,6.917-4.664,10.933-.119-.931-.614-1.817-1.466-2.372-.548-.357-1.163-.529-1.771-.535.377-.694.509-1.486.35-2.273-.185-.872-.694-1.619-1.44-2.107-.746-.489-1.638-.661-2.51-.476-.872.178-1.618.694-2.107,1.44-.489.74-.654,1.632-.476,2.504.185.872.693,1.625,1.44,2.114.192.126.396.218.601.304-.39.192-.674.562-.727,1.004-.033.225-.039.449-.033.68-.33-.099-.667-.159-1.011-.152.469-1.401-.033-2.993-1.321-3.838-.746-.489-1.638-.661-2.51-.476-.872.178-1.625.687-2.107,1.434-.489.747-.661,1.638-.482,2.51.185.872.693,1.619,1.44,2.107.562.37,1.196.548,1.823.548.02,0,.04-.007.066-.007-.192.555-.238,1.15-.119,1.737.185.872.694,1.619,1.44,2.107.548.363,1.182.548,1.823.548.225,0,.456-.026.687-.073.846-.178,1.572-.667,2.061-1.381.594.984,1.275,1.922,1.936,2.761-6.963-1.625-19.192-3.614-22.31,1.473-1.969,3.217-1.572,6.626,1.11,9.606.542.608.489,1.559-.132,2.22-3.224,3.442-2.576,8.383-.132,10.993,2.213,2.358,5.364,2.471,8.027.277,3.838-3.164,8.601-4.076,11.409-4.327-1.737,2.345-4.763,6.164-7.445,8.212-1.916,1.453-2.299,3.006-2.279,4.056.033,1.757,1.149,3.184,2.008,4.023-.964,1.784-1.136,3.369-.516,4.737.806,1.784,2.702,2.537,3.852,2.834,1.599,5.569,5.483,7.505,8.985,7.505.608,0,1.196-.059,1.764-.165,5.219-.984,10.253-6.21,9.275-12.948-.185-1.275-.291-2.405-.337-3.409,1.341,4.908,4.479,9.612,7.67,12.387,1.407,1.229,3.462,2.59,5.252,2.147,2.061-.509,3.105-1.619,3.621-2.451.271-.443.766-.628,1.202-.449,2.742,1.123,5.292.859,7.188-.76,2.755-2.352,2.206-6.606,1.268-9.758-.119-.41.073-.846.476-1.057,1.235-.667,2.933-2.127,3.997-5.278,1.031-3.046-1.698-6.137-8.099-9.216,10.603-.066,11.588-2.193,11.977-3.039.905-1.942.614-4.188-.819-6.322-.244-.37-.224-.852.04-1.183,2.722-3.343,4.73-8.43,2.715-11.7-.872-1.414-2.021-1.856-2.827-1.982-1.374-.218-2.709.317-3.64.852-1.837-2.603-5.615-5.82-10.735-4.757-2.59.542-4.882,2.332-6.785,4.479,1.889-4.334,3.455-8.608,1.387-11.191-2.107-2.623-4.34-2.847-5.846-2.576-.667.119-1.321-.152-1.658-.7-1.295-2.068-2.946-3.316-4.77-3.614-1.863-.297-3.819.383-5.814,2.035Zm-5.166,13.18c.211-.317.344-.667.429-1.017-.066,1.889.033,3.68.178,5.146-.859-.892-1.684-1.85-2.431-2.768.72-.218,1.381-.68,1.824-1.361Zm-.06,54.714c-3.878.727-6.837-1.579-7.901-6.17-.119-.535-.574-.938-1.116-1.011-.562-.079-2.246-.509-2.689-1.493-.41-.905.271-2.22.912-3.171.403-.595.258-1.401-.324-1.817-.476-.337-1.83-1.572-1.843-2.728-.013-.634.403-1.275,1.235-1.903,3.35-2.55,6.97-7.313,8.826-9.923.443-.614.495-1.414.139-2.074-.35-.647-1.011-1.044-1.737-1.044h-.06c-2.596.079-9.202.72-14.415,5.014-2.147,1.77-3.686.733-4.413-.04-1.632-1.744-2.048-5.06.132-7.386,1.566-1.665,1.638-4.155.165-5.787-1.909-2.127-2.18-4.241-.819-6.461,2.286-3.719,15.683-1.493,23.598.786.575.172,1.202-.079,1.506-.601.099-.172.158-.363.172-.548.119.092.245.185.363.277.443.33,1.044.35,1.506.046.205-.132.35-.317.456-.522.073,1.526.641,2.775.68,2.861.066.145.159.277.277.39l6.6,6.408c.013.033.02.073.026.106-.026,0-.059-.007-.093-.007-1.136-.152-4.36-3.277-6.659-6.098-.013-.013-.02-.02-.026-.033-1.619-1.87-5.583-1.771-6.844-1.321-1.011.363-1.143,1.116-1.149,1.427-.007.31.086,1.07,1.09,1.493.469.238,1.407,1.711,2.266,3.495-4.301.542-7.954,2.742-8.132,2.854-.595.357-.806,1.116-.483,1.737.317.614,1.057.879,1.698.601,2.431-1.057,5.714-.601,7.848-.106-.74.951-1.123,1.843-1.189,1.995-.198.489-.093,1.05.277,1.427.37.383.932.502,1.42.31,1.189-.456,2.451-.317,3.435-.053-6.012,6.435-4.994,13.232-4.942,13.536.099.614.614,1.077,1.235,1.11.627.026,1.182-.377,1.347-.978.212-.799.76-1.883,1.387-2.966.363,1.698.964,2.986,1.011,3.085.251.529.819.832,1.4.74.218-.04.41-.139.582-.264.006,1.467.132,3.072.39,4.836.753,5.186-3.125,9.209-7.148,9.969Zm10.293-27.588c-.125-.033-.251-.053-.376-.053-.363,0-.714.152-.971.423-.086.092-1.506,1.638-2.609,3.838-.112-.271-.317-.509-.595-.654-.555-.297-1.229-.159-1.625.304.846-1.566,2.081-3.23,3.878-4.829.317-.284.482-.7.436-1.123-.04-.423-.284-.799-.654-1.011-.106-.059-1.876-1.064-4.149-1.235.146-.119.297-.231.456-.33.429-.264.674-.753.621-1.255-.046-.509-.383-.938-.859-1.11-.106-.04-1.024-.37-2.392-.687.125-.007.251-.007.377-.007.449,0,.859-.211,1.11-.575.245-.363.297-.832.132-1.242-.449-1.097-1.348-3.138-2.431-4.697.78.092,1.546.284,1.85.621,1.288,1.586,5.628,6.672,8.35,7.029,1.473.192,2.24-.363,2.623-.865.892-1.169.291-2.775.158-3.085-.066-.165-.172-.31-.297-.436l-3.396-3.297c.139-.053.271-.126.39-.231.416-.35.568-.925.39-1.44-1.612-4.591-2.504-10.26-1.275-11.449.826,1.011,1.658,5.629,1.843,10.313.02.588.423,1.083.991,1.229.568.145,1.163-.099,1.46-.601l.33-.548c-.046,1.863.165,3.799.905,5.417.165.377.502.647.898.74.396.092.819,0,1.136-.258.033-.033,2.603-2.088,5.622-2.999-1.176,1.077-2.405,2.266-3.098,3.145-.304.39-.37.918-.165,1.367.205.449.641.747,1.136.773.033,0,1.651.092,3.713.436-2.451.403-4.75,1.11-5.622,2.339-.575.799-.727,1.704-.436,2.55.106.324.277.621.489.892l-3.561.304c-.535.046-.984.416-1.143.925-.165.515.006,1.077.423,1.414l4.71,3.878c-.76.211-1.46.601-1.949,1.288-.661.905-.786,2.088-.39,3.561-2.293-1.711-4.915-4.347-5.51-7.729-.086-.489-.443-.892-.925-1.037Zm3.27-37.326c.918,1.467,2.643,2.213,4.374,1.903,1.163-.211,2.279.337,3.316,1.625,1.301,1.632-.76,6.269-2.418,9.989-.68,1.526-1.321,2.966-1.804,4.314-.357.984.073,2.015,1.017,2.458.951.443,2.021.112,2.55-.799,1.612-2.768,4.876-7.525,8.654-8.311,5.516-1.15,8.502,4.406,8.628,4.644.185.357.522.608.918.687.396.079.806-.033,1.11-.291.403-.337,1.777-1.282,2.775-1.116.245.04.608.159.978.76,1.222,1.982-.317,5.952-2.511,8.648-.991,1.222-1.07,2.993-.185,4.314.918,1.381,1.13,2.636.615,3.746-.265.502-3.072,1.737-12.764,1.467-.945-.02-1.79.614-1.988,1.566-.205.945.284,1.863,1.183,2.233,7.795,3.211,10.035,5.913,9.586,7.254-.627,1.85-1.579,3.164-2.748,3.799-1.493.799-2.226,2.543-1.751,4.136.469,1.586,1.374,5.437-.456,6.989-1.136.971-2.636,1.083-4.466.33-1.638-.674-3.508-.04-4.459,1.506-.377.608-1.05,1.037-2.008,1.275-.225.059-1.196-.112-2.874-1.579-3.462-3.006-8.04-10.061-7.386-16.331.02-.172.007-.337-.013-.502,3.118,3.852,7.604,5.913,7.875,6.038.172.079.357.112.542.112.376,0,.746-.159,1.004-.456.376-.443.423-1.083.112-1.579-2.352-3.66-1.784-4.651-1.711-4.757.376-.522,2.114-.476,3.191-.211.601.152,1.222-.132,1.499-.687.278-.548.139-1.222-.337-1.612l-5.08-4.175,4.301-.37c.627-.053,1.13-.548,1.195-1.183.066-.628-.323-1.216-.931-1.401-1.242-.377-2.385-1.116-2.451-1.453,0,0,.007-.053.093-.165.641-.905,5.536-1.731,10.471-1.777.601,0,1.123-.41,1.268-.991.145-.581-.112-1.189-.634-1.48-2.524-1.407-6.058-2.101-8.476-2.425,1.764-1.698,3.964-3.521,3.99-3.548.403-.33.568-.859.436-1.361-.139-.495-.548-.872-1.063-.958-3.799-.628-7.743,1.427-9.85,2.788-.746-3.838.872-8.971.892-9.024.205-.641-.099-1.334-.714-1.612-.608-.271-1.334-.046-1.678.529l-1.777,2.973c-.396-3.508-1.249-7.518-3.065-8.476-.766-.403-1.625-.344-2.411.152-1.896,1.196-2.14,4.083-1.784,7.042-.125-.066-.251-.112-.396-.139-.482-.086-.971.099-1.275.482-.542.687-.812,1.447-.918,2.2-.383-2.002-2.319-13.589,3.158-18.134,1.381-1.143,2.629-1.632,3.706-1.46,1.328.211,2.339,1.427,2.946,2.405Z" fill="#595bd4" class="color000000 svgShape"></path>
</svg>
