<svg xmlns="http://www.w3.org/2000/svg" enable-background="new 0 0 510.001 488.695" viewBox="0 0 510.001 488.695" id="cosmetics">
  <g fill="#fe9526" class="color000000 svgShape">
    <g fill="#fe9526" class="color000000 svgShape">
      <g fill="#fe9526" class="color000000 svgShape">
        <g fill="#fe9526" class="color000000 svgShape">
          <g fill="#fe9526" class="color000000 svgShape">
            <path fill="#167ffc" d="M478.697 117.174h-32.609V94.566h21.957c5.523 0 10-4.478 10-10 0-5.522-4.477-10-10-10h-21.957V51.956h21.957c5.523 0 10-4.478 10-10s-4.477-10-10-10h-21.957V10c0-5.522-4.477-10-10-10-5.523 0-10 4.478-10 10v21.956h-21.956c-5.523 0-10 4.478-10 10s4.477 10 10 10h21.956v22.609h-21.956c-5.523 0-10 4.478-10 10 0 5.522 4.477 10 10 10h21.956v22.608H393.48c-5.523 0-10 4.478-10 10 0 5.522 4.477 10 10 10h32.608v22.608h-21.956c-5.523 0-10 4.478-10 10 0 5.522 4.477 10 10 10h21.956v64.565c0 5.523 4.477 10 10 10 5.523 0 10-4.477 10-10v-64.565h21.957c5.523 0 10-4.478 10-10 0-5.522-4.477-10-10-10h-21.957v-22.608h32.609c5.523 0 10-4.478 10-10C488.697 121.651 484.22 117.174 478.697 117.174zM223.045 111.848c-5.523 0-10 4.478-10 10 0 6.42 0 153.497 0 165.108 0 5.522 4.477 10 10 10 5.523 0 10-4.478 10-10V180.434c9.047 8.109 20.559 13.512 33.261 14.938v91.584c0 5.522 4.477 10 10 10 5.523 0 10-4.478 10-10 0-15.655 0-102.57 0-115.108C286.305 111.927 223.145 111.89 223.045 111.848zM233.045 135.761v-3.346c18.858 3.214 33.261 19.673 33.261 39.433v3.346C247.447 171.98 233.045 155.521 233.045 135.761zM177.488 36.177C126.19 2.392 56.605 1.86 4.501 36.177c-4.293 2.828-5.743 8.45-3.352 13.001l49 93.298c2.576 4.907 8.629 6.764 13.503 4.204 4.889-2.568 6.771-8.613 4.203-13.503L23.21 48.172c41.317-23.333 94.089-23.423 135.563-.002l-44.71 85.001c-2.571 4.888-.692 10.935 4.195 13.506 4.888 2.569 10.934.691 13.506-4.195l49.073-93.298C183.232 44.632 181.783 39.006 177.488 36.177z" class="color5596fb svgShape"></path>
          </g>
          <g fill="#fe9526" class="color000000 svgShape">
            <path fill="#595bd4" d="M122.914 127.826H59.001c-5.523 0-10 4.478-10 10v31.957c0 .246 9.566 277.583 9.924 287.966.599 17.353 14.669 30.946 32.033 30.946 17.364 0 31.434-13.593 32.033-30.946.392-11.373 9.924-287.72 9.924-287.966v-31.957C132.914 132.304 128.437 127.826 122.914 127.826zM69.719 190.435h42.477l-3.351 97.174H73.07L69.719 190.435zM69.001 147.826h43.913v21.784l-.028.824H69.03l-.028-.824V147.826zM90.958 468.695c-6.529 0-11.819-5.111-12.044-11.636L73.76 307.608h34.396l-5.153 149.451C102.777 463.584 97.487 468.695 90.958 468.695zM318.914 319.565H307.61v-32.609c0-5.523-4.477-10-10-10h-95.87c-5.523 0-10 4.477-10 10v32.609h-11.305c-5.523 0-10 4.478-10 10v149.13c0 5.522 4.477 10 10 10h138.479c5.523 0 10-4.478 10-10v-149.13C328.914 324.043 324.437 319.565 318.914 319.565zM211.74 296.956h75.87v22.609h-75.87V296.956zM308.914 339.565v86.522H190.436v-86.522C204.382 339.565 293.57 339.565 308.914 339.565zM190.436 468.695v-22.608h118.479v22.608H190.436zM500.001 276.956h-11.304v-32.608c0-5.522-4.477-10-10-10H393.48c-5.523 0-10 4.478-10 10v32.608h-11.305c-5.523 0-10 4.477-10 10v191.739c0 5.522 4.477 10 10 10h127.826c5.522 0 10-4.478 10-10V286.956C510.001 281.434 505.524 276.956 500.001 276.956zM403.48 254.348h65.217v22.608H403.48V254.348zM490.001 296.956v129.131H382.175V296.956C404.177 296.956 468.064 296.956 490.001 296.956zM382.175 468.695v-22.608h107.826v22.608H382.175z" class="color283954 svgShape"></path>
          </g>
        </g>
      </g>
    </g>
  </g>
</svg>
