<svg xmlns="http://www.w3.org/2000/svg" fill="none" viewBox="0 0 128 128" id="diamond">
  <path stroke="#595bd4" stroke-linejoin="round" stroke-width="7" d="M69.6322 92.4165L100.192 62.1208C102.967 59.3699 103.349 55.0168 101.095 51.8249L93.7239 41.3855C92.2248 39.2625 89.7878 38 87.1889 38H64H40.8111C38.2122 38 35.7752 39.2625 34.2761 41.3855L26.9047 51.8249C24.6509 55.0168 25.0326 59.3698 27.8075 62.1208L58.3678 92.4165C61.4863 95.508 66.5137 95.508 69.6322 92.4165Z" class="colorStroke1f1f1f svgStroke"></path>
  <path stroke="#595bd4" stroke-linecap="round" stroke-linejoin="round" stroke-width="7" d="M28 58H101M54.5 40L48.6138 50.9566C46.3612 55.1495 46.3932 60.1995 48.6987 64.3635L64 92M73.2432 40L79.2618 50.9082C81.5881 55.1243 81.5844 60.2401 79.2519 64.4528L64 92" class="colorStroke1f1f1f svgStroke"></path>
</svg>
