<svg xmlns="http://www.w3.org/2000/svg" viewBox="0 0 100 100" id="OfficeChair">
  <path d="M87.64 31.295h-7.021a3.588 3.588 0 0 0-3.584 3.584v2.458a5.683 5.683 0 0 0 5.595 5.675v7.32a4.55 4.55 0 0 1-4.544 4.544H76.9c-.686-3.046-3.409-5.33-6.659-5.33h-15.28v-6.265h11.704c2.11 0 4.092-.931 5.439-2.555S74 36.981 73.61 34.908L68.784 9.26a7.071 7.071 0 0 0-6.945-5.76H38.155a7.072 7.072 0 0 0-6.945 5.761L26.389 34.91a7.045 7.045 0 0 0 1.506 5.817 7.045 7.045 0 0 0 5.439 2.555h11.704v6.265H29.76c-3.25 0-5.973 2.284-6.659 5.33h-1.186a4.55 4.55 0 0 1-4.544-4.544v-7.32a5.684 5.684 0 0 0 5.595-5.675V34.88a3.588 3.588 0 0 0-3.584-3.584H12.36a3.588 3.588 0 0 0-3.584 3.584v2.458a5.683 5.683 0 0 0 5.595 5.675v7.32c0 4.16 3.384 7.544 7.544 7.544h1.186c.686 3.046 3.408 5.331 6.659 5.331h14.496l.998 6.412h.613v2.325c-7.238.661-13.758 3.032-17.951 6.632-.779.667-1.25 1.599-1.328 2.622s.247 2.015.914 2.792a3.84 3.84 0 0 0 5.415.413c2.815-2.417 7.577-4.148 12.95-4.745v1.968c0 2.279 1.854 4.133 4.133 4.133s4.133-1.854 4.133-4.133v-1.968c5.373.597 10.134 2.328 12.95 4.745a3.841 3.841 0 0 0 5.415-.413 3.844 3.844 0 0 0-.413-5.415c-4.194-3.6-10.714-5.971-17.952-6.632v-2.325h.613l.998-6.412H70.24c3.251 0 5.973-2.284 6.659-5.331h1.186c4.16 0 7.544-3.384 7.544-7.544v-7.32a5.684 5.684 0 0 0 5.595-5.675V34.88a3.589 3.589 0 0 0-3.584-3.585zm-75.864 6.043V34.88c0-.322.262-.584.584-.584h7.021c.322 0 .584.262.584.584v2.458a2.682 2.682 0 0 1-2.679 2.679h-2.831a2.682 2.682 0 0 1-2.679-2.679zm21.558 2.944a4.056 4.056 0 0 1-3.13-1.47 4.058 4.058 0 0 1-.867-3.348l4.821-25.648A4.071 4.071 0 0 1 38.155 6.5h23.684a4.07 4.07 0 0 1 3.997 3.315l4.827 25.648c.225 1.193-.091 2.414-.867 3.348s-1.916 1.471-3.13 1.471H33.334zm14.705 3h3.923v6.265h-3.923v-6.265zm22.182 38.755a.838.838 0 0 1-1.184.089c-3.619-3.107-9.562-5.15-16.303-5.604l-1.601-.108v5.212a1.134 1.134 0 0 1-2.266 0v-5.212l-1.601.108c-6.741.455-12.683 2.498-16.303 5.605a.837.837 0 0 1-1.384-.701.83.83 0 0 1 .291-.573c3.867-3.319 10.053-5.474 16.954-5.984l.633-.038a43.121 43.121 0 0 1 2.545-.082 43.121 43.121 0 0 1 2.544.082l.633.038c6.901.51 13.087 2.665 16.954 5.984.349.301.39.833.088 1.184zM51.133 71.766a39.828 39.828 0 0 0-2.266 0V69.62h2.267v2.146zm1.044-5.147h-4.354l-.532-3.412h5.417l-.531 3.412zm18.063-6.412H29.76a3.835 3.835 0 0 1-3.831-3.831 3.834 3.834 0 0 1 3.831-3.83H70.24a3.835 3.835 0 0 1 3.831 3.831 3.836 3.836 0 0 1-3.831 3.83zm17.984-22.869a2.682 2.682 0 0 1-2.679 2.679h-2.831a2.682 2.682 0 0 1-2.679-2.679V34.88c0-.322.262-.584.584-.584h7.021c.322 0 .584.262.584.584v2.458zM29.831 96.5c2.503 0 4.541-2.037 4.541-4.541s-2.037-4.54-4.541-4.54-4.541 2.037-4.541 4.54 2.037 4.541 4.541 4.541zm0-6.081c.85 0 1.541.691 1.541 1.54 0 .85-.691 1.541-1.541 1.541s-1.541-.691-1.541-1.541c0-.849.691-1.54 1.541-1.54zm42.093-3c-2.503 0-4.541 2.037-4.541 4.54S69.42 96.5 71.924 96.5s4.541-2.037 4.541-4.541-2.038-4.54-4.541-4.54zm0 6.081c-.85 0-1.541-.691-1.541-1.541a1.542 1.542 0 0 1 3.082 0 1.544 1.544 0 0 1-1.541 1.541zM50 96.5c2.503 0 4.541-2.037 4.541-4.541s-2.037-4.54-4.541-4.54-4.541 2.037-4.541 4.54S47.497 96.5 50 96.5zm0-6.081c.85 0 1.541.691 1.541 1.54 0 .85-.691 1.541-1.541 1.541s-1.541-.691-1.541-1.541c0-.849.691-1.54 1.541-1.54z" fill="#595bd4" class="color000000 svgShape"></path>
</svg>
