<svg xmlns="http://www.w3.org/2000/svg" viewBox="0 0 128 128" id="Spaniel">
  <path d="M118.011,44.482a1.986,1.986,0,0,1-.842-1.652,3.379,3.379,0,0,1,.6-2.306,9.241,9.241,0,0,0,1.25-3.34c.555-2.908-1.41-5.987-3.143-8.7-.5-.791-.983-1.54-1.382-2.253a48.968,48.968,0,0,1-2.953-6.626,9.154,9.154,0,0,0,.159-1.663,9.333,9.333,0,0,0-1.049-3.953A12.9,12.9,0,0,0,99.015,6.8c-.022,0-.043,0-.064,0a.517.517,0,0,0-.057,0,12.9,12.9,0,0,0-11.639,7.182,9.348,9.348,0,0,0-1.049,3.953,9.289,9.289,0,0,0,.159,1.667,48.774,48.774,0,0,1-2.952,6.621c-.4.714-.876,1.462-1.381,2.253-1.733,2.717-3.7,5.8-3.143,8.7a11.187,11.187,0,0,0,.372,1.454,108.97,108.97,0,0,1-12.478,5.384C62.161,45.44,56.634,46.16,39.25,46.16c-17.039,0-22.172,20.356-22.529,25.4-.307,4.449-7.785,8.563-7.86,8.6a.5.5,0,0,0,.191.938l2.361.225L6.954,85.579a.5.5,0,0,0,.346.861,15.908,15.908,0,0,0,11.035-4.171c-2.676,4.235-5.686,8.482-7.523,11.073a35.271,35.271,0,0,0-2.177,3.2c-.451,1.139-.089,3.241,1.213,7.028,1.072,3.082-.015,15.238-.026,15.361a.5.5,0,0,0,.5.545H26.23a.5.5,0,0,0,.5-.5,5.352,5.352,0,0,0-1.644-4.123,7.109,7.109,0,0,0-3.884-1.642c3.869-2.659,4.184-7.8,4.2-9.09l2.569-1.618,2.9.929a.5.5,0,0,0,.3,0c5.929-1.8,10.2-13.217,12.035-19.071v.462a.5.5,0,0,0,.485.5l3.075.095V87.27a.5.5,0,0,0,.177.382.492.492,0,0,0,.408.11c1.3-.225,7.854-1.391,9-2.231.649-.484,5.371-1.259,8.831-1.7V87.26a.5.5,0,0,0,.532.5c6.693-.435,9.937-4.22,11.078-5.944,2.816,6.765-1.828,21.579-1.877,21.734a.5.5,0,0,0,.075.45.579.579,0,0,0,.41.2l3.025-.051-1.066,6.115a.5.5,0,0,0,.389.575l4.4.936v7.2a.5.5,0,0,0,.5.5h32.29a.5.5,0,0,0,.5-.5c0-4.45-5.148-6.019-6.48-6.351l-.49-1.739h6.47a.5.5,0,0,0,.484-.629c-.038-.14-3.759-14.051-5.39-20.493-1.132-4.491-1.837-16.64-2.091-21.737A40.779,40.779,0,0,0,109.687,60a8.351,8.351,0,0,0,1.3.106,6.912,6.912,0,0,0,1.209-.094.5.5,0,0,0,.345-.731c-1.718-3.151-.023-6.723,1.147-8.581l-.045,3a.5.5,0,0,0,.278.456.493.493,0,0,0,.531-.055c.181-.143,4.414-3.522,4.669-6.675A2.951,2.951,0,0,0,118.011,44.482ZM88.157,14.417A11.89,11.89,0,0,1,98.765,7.8a.568.568,0,0,0,.306,0,11.893,11.893,0,0,1,10.68,6.614,8.372,8.372,0,0,1,.951,3.521c0,3.865-3.011,7.4-3.778,8.236a4.8,4.8,0,0,1-.131-2.166.251.251,0,0,0-.2-.291.244.244,0,0,0-.291.2,5.337,5.337,0,0,0,.335,2.95c.005.014,0,.029.005.043.017.042,1.768,4.173,1.768,7.036a14.418,14.418,0,0,1-2.96,7.781c-.792.881-2.751.485-3.439.257-.01,0-.021,0-.031,0-.625-.407-.945-1.914-1.117-2.741l-.039-.183c-.464-2.187-1.811-2.212-1.869-2.212s-1.4.025-1.869,2.212l-.039.183c-.172.827-.492,2.334-1.117,2.741-.01,0-.021,0-.032,0-.686.23-2.641.628-3.439-.257A14.426,14.426,0,0,1,89.5,33.947c0-2.86,1.751-6.994,1.769-7.036,0-.014,0-.028,0-.042a5.323,5.323,0,0,0,.335-2.951.244.244,0,0,0-.291-.2.251.251,0,0,0-.2.291,4.79,4.79,0,0,1-.131,2.166c-.766-.837-3.778-4.371-3.778-8.236A8.372,8.372,0,0,1,88.157,14.417Zm10.8,22.928c.053,0,1.007.059,1.381,1.815l.038.183a6.421,6.421,0,0,0,1.073,2.837.379.379,0,0,0-.031.039,5.084,5.084,0,0,1-2.181.636.5.5,0,0,0-.34-.132.482.482,0,0,0-.149.023.5.5,0,0,0-.174.095,4.948,4.948,0,0,1-2.074-.616.375.375,0,0,0-.035-.044,6.43,6.43,0,0,0,1.073-2.838l.038-.183C97.946,37.41,98.9,37.347,98.954,37.345ZM82.875,29.017c.513-.8,1-1.564,1.411-2.3A47.146,47.146,0,0,0,86.81,21.26a17.111,17.111,0,0,0,3.412,5.564A22.579,22.579,0,0,0,88.5,33.947a14.7,14.7,0,0,0,1.723,6.142,11.963,11.963,0,0,0-.4,4.034A5.589,5.589,0,0,0,91.3,47.536a6.718,6.718,0,0,1,1.722,4.6c-.09,2.664-.865,4.6-2.3,5.751a6.215,6.215,0,0,1-4.151,1.208c2.05-4.9-2.293-10.089-2.487-10.318a.5.5,0,0,0-.881.332l.053,3.492c-1.2-1.108-3.308-3.306-3.465-5.247a2.017,2.017,0,0,1,.772-2.12,2.954,2.954,0,0,0,1.179-2.342A4.32,4.32,0,0,0,81,40.022,8.291,8.291,0,0,1,79.871,37C79.391,34.478,81.241,31.577,82.875,29.017Zm26.19,61c1.433,5.661,4.477,17.078,5.224,19.877h-2.27a15.619,15.619,0,0,1-6.5-7.4,46.174,46.174,0,0,1-2.86-10.025.256.256,0,0,0-.3-.195.249.249,0,0,0-.195.294,46.664,46.664,0,0,0,2.895,10.135,16.59,16.59,0,0,0,5.954,7.19H107.81a.5.5,0,0,0-.482.635l.75,2.66a.5.5,0,0,0,.383.355c.058.012,5.5,1.15,5.95,4.94H102.527c-.012-.11-.025-.219-.046-.344-.591-3.06-4.2-5.122-5.837-5.913l1.984-1.472a.5.5,0,0,0,.021-.786c-5.034-4.181-3.363-23.357-3.135-25.724A29.536,29.536,0,0,0,107.067,70.4C107.421,76.857,108.077,86.1,109.065,90.013Zm-12.49-7.725c3.708-7.306,4.258-18.265,4.281-18.769a.5.5,0,0,0-.475-.523.489.489,0,0,0-.523.476c-.006.132-.666,13.325-5.234,20.2l0,.006c-.011.018-.014.038-.023.056a.511.511,0,0,0-.049.144c0,.006-.005.011-.006.017-.09.841-2.008,19.429,2.462,25.722a14.016,14.016,0,0,1-3.169-8.709.25.25,0,0,0-.25-.248.244.244,0,0,0-.25.252,14.515,14.515,0,0,0,3.834,9.673l-1.808,1.342a.5.5,0,0,0,.114.866c.053.021,5.373,2.167,6.021,5.519.009.054.018.11.025.166H83.15v-7.11a.5.5,0,0,0-.4-.489l-4.329-.92,1.087-6.235a.5.5,0,0,0-.113-.411.429.429,0,0,0-.388-.175l-2.943.049c.946-3.188,4.629-16.677,1.2-22.677l0,0-2.88-6.11a.5.5,0,1,0-.9.425l2.794,5.929c-.549.994-3.31,5.319-10.089,5.967V83.26a.516.516,0,0,0-.029-.135l4.191-.155a.25.25,0,0,0,.241-.259.265.265,0,0,0-.259-.241l-5.14.19a.237.237,0,0,0-.214.186c-2.273.292-8.191,1.117-9.215,1.881-.693.5-5.042,1.417-8,1.947V84.94a.492.492,0,0,0-.017-.085,25.772,25.772,0,0,0,10.51-3.333.25.25,0,0,0,.092-.341A.253.253,0,0,0,58,81.089a25.274,25.274,0,0,1-11.187,3.337l-2.616-.08V80.879c1.332-9.338,5.22-11.527,5.286-11.564a.5.5,0,0,0-.458-.888c-.179.091-4.385,2.355-5.811,12.268v0c-.049.189-4.693,18.29-11.621,21.5a40.738,40.738,0,0,0,4.7-19.659.25.25,0,1,0-.5.008,40.237,40.237,0,0,1-4.835,19.807c-.01.019,0,.039-.006.058l-2.9-.93a.506.506,0,0,0-.15-.013,23.5,23.5,0,0,0,5.591-7.6.25.25,0,0,0-.455-.209,22.986,22.986,0,0,1-6.553,8.357.237.237,0,0,0-.061.278l-1.791,1.129a.5.5,0,0,0-.234.444c0,.071.239,7.135-5.244,9.3a.5.5,0,0,0,.225.963c.032,0,3.2-.236,5.031,1.458a4.214,4.214,0,0,1,1.3,2.884H10.865c.205-2.462.946-12.306-.072-15.232-.745-2.169-1.684-5.184-1.232-6.327.1-.23,1.014-1.514,2.068-3,4.238-5.98,13.056-18.424,13.32-23.313v0c0-.011.006-.021.006-.032-.134-5.08,3.219-11.273,3.252-11.335a.5.5,0,0,0-.877-.48c-.143.261-3.472,6.414-3.374,11.745-.1.475-3.17,13.989-15.357,14.892l4.3-4.1a.5.5,0,0,0-.3-.859l-1.94-.186c2.3-1.476,6.8-4.831,7.061-8.621C18,67.6,22.9,47.16,39.25,47.16c15.681,0,22.442-.53,27.825-2.182a109.506,109.506,0,0,0,12.553-5.406c.175.373.35.677.511.952a3.379,3.379,0,0,1,.6,2.306,1.98,1.98,0,0,1-.842,1.651,2.954,2.954,0,0,0-1.107,2.949c.255,3.151,4.487,6.53,4.668,6.673a.5.5,0,0,0,.809-.4l-.044-3c1.169,1.859,2.865,5.431,1.146,8.582a.5.5,0,0,0-.014.453.506.506,0,0,0,.359.278,6.894,6.894,0,0,0,1.208.094,7.067,7.067,0,0,0,4.412-1.433c1.679-1.343,2.582-3.53,2.683-6.522a7.66,7.66,0,0,0-1.926-5.218A4.665,4.665,0,0,1,90.82,44.1a15.813,15.813,0,0,1,.136-2.722,8.166,8.166,0,0,0,.759,1.02c1.147,1.276,3.368.843,4.188.627a6.782,6.782,0,0,0,2.939.859.453.453,0,0,0,.052,0,.43.43,0,0,0,.062,0,.514.514,0,0,0,.111,0,6.778,6.778,0,0,0,2.938-.859c.82.216,3.041.648,4.188-.627a8.108,8.108,0,0,0,.76-1.021,15.8,15.8,0,0,1,.137,2.722,4.655,4.655,0,0,1-1.274,2.834,7.673,7.673,0,0,0-1.926,5.235c.1,2.972,1,5.159,2.675,6.5a6.3,6.3,0,0,0,2.143,1.106C107.567,69.642,103.49,77.2,96.575,82.288ZM118.122,47.35c-.157,1.942-2.263,4.141-3.466,5.249l.054-3.492a.5.5,0,0,0-.881-.332c-.194.229-4.538,5.42-2.488,10.32a6.274,6.274,0,0,1-4.151-1.207c-1.438-1.152-2.213-3.087-2.3-5.738a6.73,6.73,0,0,1,1.723-4.614,5.59,5.59,0,0,0,1.477-3.414,11.983,11.983,0,0,0-.4-4.036,14.694,14.694,0,0,0,1.722-6.139,22.579,22.579,0,0,0-1.723-7.123,17.1,17.1,0,0,0,3.413-5.567,47.318,47.318,0,0,0,2.524,5.457c.414.74.9,1.5,1.412,2.3,1.633,2.56,3.484,5.461,3,7.978a8.291,8.291,0,0,1-1.132,3.026,4.322,4.322,0,0,0-.736,2.869,2.953,2.953,0,0,0,1.179,2.341A2.014,2.014,0,0,1,118.122,47.35Z" fill="#595bd4" class="color000000 svgShape"></path>
  <path d="M92.349 18.51c-.132 1.095 1.095 2.8 2.1 2.321s.569-3.766-.175-3.766A1.734 1.734 0 0092.349 18.51zM92.3 16.023a.259.259 0 00.207.1.254.254 0 00.121-.029.279.279 0 00.136-.269.218.218 0 000-.044 8.3 8.3 0 011.59-1.987.25.25 0 00-.334-.373c-.71.635-1.83 2.047-1.765 2.43l0 .007A.25.25 0 0092.3 16.023zM95.7 21.37a.239.239 0 00.159-.058 4.255 4.255 0 001.219-1.644.25.25 0 10-.461-.193 3.784 3.784 0 01-1.076 1.453.25.25 0 00.159.442zM95.187 30.2c.915.247 1.305.27 1.41-.681a4.647 4.647 0 01.527-1.666s.3 2.419-.231 2.912-.544.773-.544.773c1.636 3.54 3.376 3.433 5.211 0 0 0-.017-.28-.545-.773s-.23-2.912-.23-2.912a4.658 4.658 0 01.526 1.666c.106.951.495.928 1.41.681s-.14-3.239-.95-4.3-2.962-.282-2.962-.282-1.862-.777-2.672.282S94.271 29.953 95.187 30.2zM103.457 20.831c1.008.482 2.234-1.226 2.1-2.321a1.735 1.735 0 00-1.928-1.445C102.888 17.065 102.45 20.35 103.457 20.831zM105.148 15.779a.209.209 0 000 .043.277.277 0 00.135.271.254.254 0 00.121.029.257.257 0 00.207-.1.25.25 0 00.051-.191 6.439 6.439 0 00-1.766-2.412.25.25 0 10-.334.373A8.365 8.365 0 01105.148 15.779zM102.054 21.312a.24.24 0 00.159.058.25.25 0 00.159-.442 3.784 3.784 0 01-1.076-1.453.25.25 0 10-.461.193A4.265 4.265 0 00102.054 21.312zM80.862 98.225a.25.25 0 00-.21-.285.245.245 0 00-.284.21 13.04 13.04 0 004.239 11.517.249.249 0 00.164.061.253.253 0 00.189-.085.249.249 0 00-.025-.353A12.532 12.532 0 0180.862 98.225zM83.994 101.318a.25.25 0 00-.248-.252h0a.251.251 0 00-.25.249 14.7 14.7 0 004.4 10.513.25.25 0 00.347-.359A14.2 14.2 0 0183.994 101.318zM91.111 105.465a.25.25 0 00-.229-.269.231.231 0 00-.269.23 7.133 7.133 0 003.345 6.5.258.258 0 00.13.036.25.25 0 00.13-.464A6.62 6.62 0 0191.111 105.465zM91.489 99.871a.26.26 0 00-.262-.237.252.252 0 00-.238.263c.122 2.387.259 5.094 1.429 7.413a9.266 9.266 0 003.228 3.6.242.242 0 00.136.04.25.25 0 00.136-.46 8.76 8.76 0 01-3.053-3.406C91.742 104.86 91.607 102.21 91.489 99.871zM107.036 108.842a.25.25 0 10.336-.371 18.1 18.1 0 01-5.866-12.38.25.25 0 10-.5.025A18.613 18.613 0 00107.036 108.842zM103.972 108.692a6.581 6.581 0 01-4.213-5.132.243.243 0 00-.283-.211.248.248 0 00-.211.283 7.09 7.09 0 004.541 5.531.239.239 0 00.083.015.25.25 0 00.083-.486zM28.327 94.723a.252.252 0 00-.282.213 14.012 14.012 0 01-9.466 11.24.25.25 0 00.076.488.246.246 0 00.076-.012 14.523 14.523 0 009.81-11.647A.25.25 0 0028.327 94.723zM18 108.5a.264.264 0 00-.264.236 16.407 16.407 0 001.2 7.075.25.25 0 00.327.136.249.249 0 00.136-.326 15.883 15.883 0 01-1.161-6.857A.251.251 0 0018 108.5zM17.8 102.353a.25.25 0 00-.451-.214 18.775 18.775 0 00-1.049 13.15.251.251 0 00.24.18.242.242 0 00.07-.01.252.252 0 00.17-.311A18.275 18.275 0 0117.8 102.353z" fill="#595bd4" class="color000000 svgShape"></path>
  <path d="M19.86 104.25a.234.234 0 00.1-.02 11.508 11.508 0 005.8-6.172 33.811 33.811 0 002.1-8.264.25.25 0 00-.206-.288.257.257 0 00-.288.206A33.433 33.433 0 0125.3 97.854a11.024 11.024 0 01-5.534 5.916.25.25 0 00.1.48zM32.581 87.747a.258.258 0 00-.265.235 12.707 12.707 0 01-2.711 7.11A.25.25 0 0030 95.4a13.221 13.221 0 002.818-7.39A.251.251 0 0032.581 87.747z" fill="#595bd4" class="color000000 svgShape"></path>
</svg>
