<svg xmlns="http://www.w3.org/2000/svg" enable-background="new 0 0 64 64" viewBox="0 0 64 64" id="StuffedToy">
  <path d="M17.36 12.05c-.05 0-.11-.01-.17-.03-2.52-.9-4.21-3.24-4.21-5.81 0-3.43 2.9-6.21 6.46-6.21 2.74 0 5.19 1.67 6.09 4.17.09.26-.04.54-.29.63-.26.09-.54-.04-.63-.29-.76-2.1-2.84-3.52-5.17-3.52-3.02 0-5.47 2.35-5.47 5.23 0 2.16 1.43 4.12 3.56 4.89.26.09.39.37.3.63C17.75 11.93 17.56 12.05 17.36 12.05zM46.37 12.12c-.21 0-.4-.13-.47-.34-.08-.26.06-.54.32-.62 2.24-.71 3.74-2.7 3.74-4.95 0-2.88-2.45-5.23-5.47-5.23-2.33 0-4.4 1.41-5.17 3.52-.09.26-.38.39-.63.3-.26-.09-.39-.38-.3-.63C39.3 1.67 41.75 0 44.49 0c3.56 0 6.46 2.79 6.46 6.21 0 2.68-1.78 5.05-4.43 5.89C46.47 12.12 46.42 12.12 46.37 12.12z" fill="#595bd4" class="color000000 svgShape"></path>
  <path d="M38.86 4.83c-.07 0-.14-.01-.21-.05-4.44-2.05-8.94-2.05-13.37 0-.25.11-.54.01-.65-.24C24.51 4.3 24.62 4 24.86 3.89c4.71-2.18 9.49-2.18 14.2 0C39.31 4 39.42 4.3 39.3 4.54 39.22 4.72 39.04 4.83 38.86 4.83zM31.85 31.05c-8.69 0-15.76-6.7-15.76-14.94 0-1.6.27-3.18.81-4.71.09-.26.37-.39.63-.3.26.09.39.37.3.63-.5 1.42-.75 2.9-.75 4.39 0 7.69 6.63 13.95 14.78 13.95 8.15 0 14.78-6.26 14.78-13.95 0-1.47-.24-2.93-.73-4.32-.09-.26.05-.54.3-.63.26-.09.54.05.63.3.52 1.5.78 3.06.78 4.64C47.62 24.35 40.55 31.05 31.85 31.05z" fill="#595bd4" class="color000000 svgShape"></path>
  <path d="M31.96,27.99c-4.74,0-8.6-2.77-8.6-6.18s3.86-6.18,8.6-6.18s8.6,2.77,8.6,6.18S36.7,27.99,31.96,27.99z M31.96,16.62
			c-4.2,0-7.61,2.33-7.61,5.19c0,2.86,3.42,5.19,7.61,5.19s7.61-2.33,7.61-5.19C39.58,18.95,36.16,16.62,31.96,16.62z" fill="#595bd4" class="color000000 svgShape"></path>
  <path d="M32 24.09c-1.87 0-3.39-1.52-3.39-3.39v-.87c0-.27.22-.49.49-.49h5.8c.27 0 .49.22.49.49v.87C35.39 22.57 33.87 24.09 32 24.09zM29.59 20.32v.38c0 1.33 1.08 2.41 2.41 2.41 1.33 0 2.41-1.08 2.41-2.41v-.38H29.59zM25.73 14.04c-1.23 0-2.23-1-2.23-2.23 0-1.23 1-2.23 2.23-2.23 1.23 0 2.23 1 2.23 2.23C27.96 13.04 26.96 14.04 25.73 14.04zM25.73 10.56c-.69 0-1.25.56-1.25 1.25 0 .69.56 1.25 1.25 1.25.69 0 1.25-.56 1.25-1.25C26.97 11.12 26.42 10.56 25.73 10.56zM38.33 14.04c-1.23 0-2.23-1-2.23-2.23 0-1.23 1-2.23 2.23-2.23s2.23 1 2.23 2.23C40.56 13.04 39.56 14.04 38.33 14.04zM38.33 10.56c-.69 0-1.25.56-1.25 1.25 0 .69.56 1.25 1.25 1.25.69 0 1.25-.56 1.25-1.25C39.58 11.12 39.02 10.56 38.33 10.56zM15.86 45.96c-.27 0-.49-.22-.49-.49v-3.14c-1.78 1.95-3.4 2.88-4.9 2.79-1.34-.06-2.57-.92-3.65-2.55-.86-1.39-1.07-3-.64-4.82 1.06-4.4 6.1-9.85 12.83-13.89.23-.14.54-.06.67.17.14.23.06.54-.17.67C13 28.62 8.15 33.83 7.14 37.99c-.37 1.55-.2 2.92.51 4.06.9 1.36 1.84 2.05 2.86 2.1 1.41.04 3.06-1.1 4.97-3.45.13-.16.35-.22.55-.15.2.07.33.26.33.46v4.47C16.36 45.74 16.14 45.96 15.86 45.96z" fill="#595bd4" class="color000000 svgShape"></path>
  <path d="M18.99,64c-0.03,0-0.06,0-0.09,0c-3.3-0.04-6.44-2.25-8-5.64c-2.22-4.83-0.65-10.57,3.51-12.79
				c1.14-0.61,2.38-0.88,3.65-0.89c3.3,0.04,6.44,2.25,8,5.64c2.22,4.83,0.65,10.56-3.51,12.79C21.44,63.7,20.24,64,18.99,64z
				 M17.96,45.66c-1.08,0-2.12,0.26-3.09,0.78c-3.71,1.98-5.09,7.15-3.08,11.51c1.4,3.04,4.2,5.03,7.12,5.07l0,0
				c1.11-0.01,2.18-0.25,3.17-0.78c3.7-1.98,5.08-7.15,3.08-11.51c-1.4-3.04-4.2-5.03-7.12-5.07
				C18.01,45.66,17.98,45.66,17.96,45.66z" fill="#595bd4" class="color000000 svgShape"></path>
  <path d="M19.01 59.84c-.62 0-1.26-.13-1.88-.38-1.31-.53-2.4-1.55-3.09-2.89-1.42-2.78-.59-6.05 1.85-7.3 2.44-1.25 5.58 0 7 2.78l0 0c1.42 2.78.59 6.05-1.85 7.3C20.42 59.67 19.72 59.84 19.01 59.84zM17.94 49.77c-.55 0-1.09.12-1.59.38-1.96 1-2.59 3.68-1.42 5.98.57 1.12 1.49 1.98 2.58 2.42 1.06.43 2.16.4 3.1-.08 1.96-1 2.59-3.68 1.42-5.98C21.15 50.79 19.52 49.77 17.94 49.77zM48.14 45.96c-.27 0-.49-.22-.49-.49V41c0-.21.13-.39.33-.46.2-.07.42-.01.55.15 1.9 2.35 3.54 3.49 4.97 3.45 1.03-.05 1.96-.74 2.87-2.11.7-1.13.88-2.5.5-4.05-1-4.16-5.86-9.37-12.38-13.28-.23-.14-.31-.44-.17-.67.14-.23.44-.31.67-.17 6.73 4.04 11.77 9.49 12.83 13.89.44 1.82.23 3.44-.63 4.81-1.09 1.64-2.31 2.49-3.65 2.56-1.52.08-3.12-.85-4.9-2.79v3.14C48.63 45.74 48.41 45.96 48.14 45.96z" fill="#595bd4" class="color000000 svgShape"></path>
  <path d="M45.01,64c-1.25,0-2.44-0.3-3.55-0.9c-4.16-2.23-5.73-7.96-3.51-12.79c1.56-3.39,4.7-5.6,8-5.64
				c1.26,0.01,2.51,0.29,3.65,0.89c4.16,2.23,5.73,7.96,3.51,12.79c-1.56,3.39-4.7,5.6-8,5.64l0,0C45.07,64,45.04,64,45.01,64z
				 M46.04,45.66c-0.03,0-0.05,0-0.08,0c-2.92,0.04-5.72,2.03-7.12,5.07c-2.01,4.36-0.63,9.53,3.08,11.51
				c0.99,0.53,2.04,0.76,3.17,0.78l0,0c2.92-0.03,5.72-2.02,7.12-5.07c2.01-4.36,0.63-9.53-3.08-11.51
				C48.17,45.92,47.13,45.66,46.04,45.66z" fill="#595bd4" class="color000000 svgShape"></path>
  <path d="M44.99,59.84c-0.71,0-1.4-0.16-2.04-0.49c-2.44-1.25-3.27-4.52-1.85-7.3l0,0c1.42-2.78,4.56-4.02,7-2.78
				c2.44,1.25,3.27,4.52,1.85,7.3c-0.68,1.33-1.78,2.36-3.09,2.89C46.24,59.71,45.61,59.84,44.99,59.84z M41.98,52.5
				c-1.17,2.3-0.54,4.98,1.42,5.98c0.93,0.48,2.03,0.51,3.1,0.08c1.09-0.44,2-1.3,2.58-2.42c1.17-2.3,0.54-4.98-1.42-5.98
				C45.7,49.15,43.15,50.2,41.98,52.5L41.98,52.5z" fill="#595bd4" class="color000000 svgShape"></path>
  <g fill="#595bd4" class="color000000 svgShape">
    <path d="M31.9,60.13c-2.08,0-4.13-0.44-6.13-1.33c-0.25-0.11-0.36-0.4-0.25-0.65c0.11-0.25,0.4-0.36,0.65-0.25
			c3.74,1.66,7.67,1.66,11.68,0c0.25-0.1,0.54,0.01,0.64,0.27c0.1,0.25-0.01,0.54-0.27,0.64C36.09,59.68,33.98,60.13,31.9,60.13z" fill="#595bd4" class="color000000 svgShape"></path>
  </g>
  <g fill="#595bd4" class="color000000 svgShape">
    <path d="M32,48.01c-0.09,0-0.18-0.02-0.25-0.07c-3.98-2.39-6.38-4.97-7.33-7.89c-0.57-2.08,0.14-4.19,1.75-5.29
				c1.64-1.11,3.8-0.93,5.83,0.47c2.03-1.4,4.19-1.58,5.83-0.47c1.61,1.09,2.32,3.21,1.76,5.26c0,0.01,0,0.02-0.01,0.02
				c-0.95,2.92-3.35,5.5-7.33,7.89C32.18,47.98,32.09,48.01,32,48.01z M28.56,35.02c-0.67,0-1.29,0.18-1.84,0.55
				c-1.26,0.86-1.81,2.54-1.36,4.19c0.85,2.6,3.02,4.96,6.64,7.17c3.61-2.22,5.78-4.57,6.64-7.19c0.45-1.65-0.1-3.32-1.36-4.18
				c-1.36-0.92-3.22-0.68-4.98,0.65c-0.18,0.13-0.42,0.13-0.59,0C30.65,35.43,29.56,35.02,28.56,35.02z M39.11,39.89L39.11,39.89
				L39.11,39.89z" fill="#595bd4" class="color000000 svgShape"></path>
  </g>
</svg>
