<svg width="1280" height="720" xmlns="http://www.w3.org/2000/svg" xmlns:xlink="http://www.w3.org/1999/xlink" overflow="hidden"><defs><filter id="fx0" x="-10%" y="-10%" width="120%" height="120%" filterUnits="userSpaceOnUse" primitiveUnits="userSpaceOnUse"><feComponentTransfer color-interpolation-filters="sRGB"><feFuncR type="discrete" tableValues="0 0"/><feFuncG type="discrete" tableValues="0 0"/><feFuncB type="discrete" tableValues="0 0"/><feFuncA type="linear" slope="0.431373" intercept="0"/></feComponentTransfer><feGaussianBlur stdDeviation="2.49149 2.49149"/></filter><clipPath id="clip1"><rect x="0" y="0" width="1280" height="720"/></clipPath><clipPath id="clip2"><rect x="133" y="117" width="243" height="246"/></clipPath></defs><g clip-path="url(#clip1)"><rect x="0" y="0" width="1280" height="720" fill="#000000" fill-opacity="0"/><rect x="0" y="0" width="1280" height="720" fill="#000000" fill-opacity="0"/><g clip-path="url(#clip2)" filter="url(#fx0)" transform="translate(-8 100)"><g><path d="M218.632-77.5708C218.632-69.2691 216.587-58.1007 212.497-44.0654 208.831-28.0026 197.022-14.9601 177.068-4.93781 156.756 5.30719 130.544 10.4297 98.4302 10.4297 66.8301 10.4297 41.788 4.25336 23.3038-8.0993 7.42029-18.5969-0.521484-30.7594-0.521484-44.5869-0.521484-53.5866 2.92249-61.2948 9.81042-67.7115 17.4385-74.8805 28.3435-79.4137 42.5254-81.3108 49.5179-82.2071 56.5933-82.6553 63.7515-82.6553 78.8582-82.6553 90.8605-80.4308 99.7583-75.9819 109.042-71.389 113.684-65.1828 113.684-57.3633 113.684-46.1908 107.78-36.8095 95.9735-29.2194 90.5563-25.6994 81.8269-21.8215 69.7852-17.5858 65.4151-16.1029 63.23-15.2819 63.23-15.123 63.23-12.6025 71.313-11.3423 87.479-11.3423 101.293-11.3423 112.948-13.3169 122.443-17.266 133.552-21.8684 139.106-28.3679 139.106-36.7646 139.106-37.9719 139.058-38.8268 138.963-39.3293 133.834-65.6004 130.296-80.718 128.348-84.6821 123.203-94.8035 113.882-99.8643 100.386-99.8643 96.7326-99.8643 90.2793-99.3645 81.0256-98.365 71.772-97.3655 65.0144-96.8657 60.7529-96.8657 30.9414-96.8657 16.0356-109.077 16.0356-133.5 16.0356-140.98 17.6911-150.628 21.002-162.442 24.6238-175.907 33.3573-186.983 47.2025-195.671 63.5396-205.937 85.7-211.071 113.684-211.071 142.379-211.071 164.854-206.516 181.108-197.406 196.39-188.792 204.031-177.79 204.031-164.398 204.031-144.147 188.343-134.021 156.967-134.021 142.122-134.021 129.487-136.493 119.061-141.436 108.61-146.327 103.384-152.199 103.384-159.053 103.384-168.49 110.244-175.81 123.963-181.014 128.822-182.604 133.658-184.173 138.47-185.72 141.762-186.947 143.408-187.836 143.408-188.386 143.408-189.413 140.703-190.713 135.293-192.285 129.882-193.858 123.461-194.644 116.03-194.644 106.942-194.644 99.5193-193.205 93.7613-190.326 87.4872-187.188 84.3501-182.544 84.3501-176.392 84.3501-173.274 85.1371-169.768 86.711-165.875 89.0496-158.078 91.435-149.838 93.8672-141.155 96.2709-134.246 99.8697-129.141 104.664-125.841 111.143-121.386 121.45-119.159 135.586-119.159 137.429-119.159 141.824-119.311 148.772-119.615 155.719-119.92 160.667-120.072 163.616-120.072 180.761-120.072 194.015-116.947 203.379-110.697 213.548-105.188 218.632-94.1456 218.632-77.5708Z" fill="#FFFFFF" transform="translate(146.202 341)"/></g></g><text fill="#FFFFFF" font-family="Ravie,Ravie_MSFontService,sans-serif" font-weight="700" font-stretch="semi-expanded" font-size="267" transform="translate(132.917 436)">S</text><text fill="#FFFFFF" font-family="Ravie,Ravie_MSFontService,sans-serif" font-weight="700" font-stretch="semi-expanded" font-size="184" transform="translate(349.25 436)">hop</text><text fill="#4B68FF" font-family="Ravie,Ravie_MSFontService,sans-serif" font-weight="700" font-stretch="semi-expanded" font-size="184" transform="translate(762.75 436)">ify</text></g></svg>